<svg width="70" height="71" viewBox="0 0 70 71" fill="none" xmlns="http://www.w3.org/2000/svg">
<g clip-path="url(#clip0_811_133)">
<path d="M30.8596 0.825352C31.0162 0.82522 31.1728 0.825087 31.3342 0.824951C31.5035 0.827374 31.6727 0.829798 31.847 0.832294C32.0237 0.833837 32.2005 0.835379 32.3825 0.836967C37.2287 0.89479 42.0198 1.53136 46.7579 2.51564C46.9266 2.55067 47.0953 2.5857 47.2691 2.62179C54.7417 4.20446 62.1414 6.95719 68.7525 10.7957C68.8485 10.8511 68.9445 10.9066 69.0435 10.9637C69.4697 11.218 69.7206 11.3933 70.0001 11.8125C70.2277 13.049 69.7389 14.3401 69.4153 15.5221C69.3537 15.7518 69.2923 15.9815 69.231 16.2112C69.0692 16.8164 68.9052 17.4209 68.7409 18.0254C68.5785 18.6244 68.4182 19.2239 68.2577 19.8234C67.8858 21.2103 67.509 22.5958 67.129 23.9805C67.0847 24.1419 67.0847 24.1419 67.0395 24.3066C66.8711 24.9195 66.7018 25.532 66.5311 26.1442C66.48 26.3275 66.4291 26.5109 66.3784 26.6943C65.0502 31.492 62.5954 35.4153 59.1993 39.0196C59.0997 39.1265 59.0002 39.2335 58.8976 39.3437C55.5585 42.8191 50.2319 45.9835 45.3907 46.5391C45.3979 46.6744 45.3979 46.6744 45.4051 46.8125C45.5843 53.3653 42.8569 60.2358 38.4692 65.0626C38.2694 65.2827 38.073 65.5057 37.8765 65.7288C37.0316 66.6779 36.1432 67.4971 35.1368 68.2774C35.0325 68.365 34.9282 68.4525 34.8207 68.5428C34.4778 68.8295 34.1243 69.0992 33.7696 69.3711C33.6574 69.4671 33.6574 69.4671 33.5429 69.5651C31.8688 70.986 30.3553 71.0822 28.2099 70.9157C28.0595 70.9023 27.909 70.8888 27.754 70.875C27.6161 70.8632 27.4782 70.8514 27.336 70.8392C23.8131 70.5076 20.4721 69.3993 17.3634 67.7305C17.1307 67.6091 17.1307 67.6091 16.8934 67.4854C14.6199 66.2512 12.633 64.623 10.8009 62.8086C10.7186 62.728 10.6364 62.6473 10.5516 62.5642C8.32871 60.3692 6.63411 57.6827 5.25523 54.896C5.19744 54.7827 5.13964 54.6694 5.08009 54.5527C3.59991 51.4801 2.9056 47.9829 2.04392 44.6983C1.88399 44.0895 1.72307 43.4809 1.56222 42.8722C1.38073 42.1852 1.19933 41.4982 1.01863 40.811C0.991351 40.7073 0.964075 40.6036 0.935972 40.4967C0.882811 40.2944 0.82972 40.0921 0.776706 39.8898C0.649595 39.4055 0.520746 38.9218 0.388181 38.439C0.350269 38.3 0.35027 38.3 0.311592 38.1582C0.243072 37.9075 0.17388 37.657 0.104638 37.4066C-0.0354799 36.8197 -0.172324 36.1906 0.000104755 35.6016C0.555942 34.8927 1.31685 34.5301 2.10216 34.1148C2.24524 34.0385 2.38832 33.9622 2.53574 33.8836C9.5422 30.1839 16.9386 27.4565 24.7462 26.0313C24.7367 25.9526 24.7273 25.8739 24.7175 25.7929C24.364 22.6145 24.5831 19.3795 25.3417 16.2762C25.3759 16.1349 25.4102 15.9937 25.4455 15.8481C26.0251 13.4893 26.656 11.1431 27.2812 8.79603C27.4707 8.08456 27.6588 7.37273 27.8465 6.66082C27.9926 6.1082 28.1395 5.55585 28.2868 5.00356C28.3566 4.74092 28.4261 4.47818 28.4952 4.21535C28.5913 3.85051 28.6887 3.48606 28.7864 3.12167C28.8283 2.96082 28.8283 2.96082 28.871 2.79673C29.0557 2.11564 29.2653 1.54538 29.7816 1.04048C30.1623 0.828143 30.4245 0.824067 30.8596 0.825352ZM31.7189 3.74611C30.9748 6.23881 30.2844 8.74476 29.6098 11.257C29.4948 11.685 29.3791 12.1128 29.2627 12.5404C27.947 17.1792 27.947 17.1792 27.4624 21.9569C27.4622 22.1024 27.4621 22.2479 27.4619 22.3978C27.4624 22.5451 27.4629 22.6923 27.4635 22.844C27.463 22.9928 27.4624 23.1417 27.4619 23.295C27.4628 24.0394 27.4852 24.7513 27.6173 25.4844C28.9341 25.3984 30.244 25.28 31.5565 25.1426C34.547 24.8383 34.547 24.8383 35.9571 24.8008C36.1123 24.7964 36.2674 24.7919 36.4273 24.7873C36.9656 24.7738 37.5037 24.7653 38.0421 24.7581C38.2165 24.754 38.3909 24.7499 38.5706 24.7457C38.7353 24.7447 38.8999 24.7436 39.0696 24.7426C39.2912 24.7396 39.2912 24.7396 39.5173 24.7365C40.0191 24.8162 40.2439 24.9984 40.6056 25.3477C40.6507 25.4379 40.6958 25.5281 40.7423 25.6211C40.9159 25.6246 41.0895 25.6282 41.2683 25.6318C44.2202 25.7174 46.8645 26.4574 49.0821 28.4922C49.1854 28.583 49.2887 28.6737 49.3951 28.7672C50.85 30.1196 52.1635 32.1432 52.3121 34.1746C52.2267 34.6446 52.2267 34.6446 51.9618 35.0547C51.4725 35.3742 51.1816 35.4046 50.6111 35.4056C50.1875 35.2957 50.036 35.1244 49.7657 34.7813C49.623 34.456 49.4985 34.1409 49.3812 33.8071C48.5772 31.6842 47.0587 29.9934 44.9806 29.0391C43.8303 28.605 42.7873 28.4197 41.5626 28.4922C41.7597 29.6148 42.0543 30.7086 42.3546 31.8068C42.4438 32.1333 42.5322 32.4599 42.6205 32.7866C42.8712 33.7148 43.1225 34.6428 43.3759 35.5702C43.5616 36.2502 43.7458 36.9305 43.9285 37.6112C43.958 37.7211 43.9875 37.8309 44.0178 37.9441C44.4644 39.6171 44.8318 41.2868 45.058 43.0057C45.1122 43.3019 45.1122 43.3019 45.3907 43.668C49.2812 42.6758 52.7667 40.8444 55.7813 38.1992C55.8574 38.1331 55.9335 38.067 56.0119 37.9989C59.2476 35.1723 61.7944 31.4726 63.1445 27.3774C63.1966 27.2199 63.1966 27.2199 63.2498 27.0591C63.684 25.7233 64.0416 24.3667 64.4021 23.0096C64.4775 22.728 64.553 22.4464 64.6285 22.1649C64.8247 21.4328 65.02 20.7005 65.2151 19.9682C65.4153 19.2173 65.6164 18.4667 65.8174 17.716C66.2098 16.2497 66.6014 14.7831 66.9923 13.3164C66.4523 12.8719 65.905 12.5368 65.2806 12.2259C65.1813 12.1757 65.0819 12.1256 64.9796 12.0739C64.657 11.9116 64.3336 11.7508 64.0101 11.5904C63.8992 11.5352 63.7883 11.48 63.674 11.4231C61.8477 10.5158 60.0106 9.67198 58.1056 8.94143C57.9533 8.88219 57.801 8.82295 57.6441 8.76192C49.4336 5.58507 40.5417 3.665 31.7189 3.74611ZM33.4962 27.6975C33.3918 27.7065 33.2874 27.7154 33.1798 27.7246C24.9339 28.4391 16.8747 30.4923 9.29698 33.8242C9.14096 33.8928 8.98495 33.9614 8.8242 34.0321C8.36262 34.2368 7.90238 34.4441 7.44273 34.6531C7.31136 34.7124 7.17998 34.7717 7.04462 34.8328C5.66163 35.4736 4.33786 36.2257 3.00792 36.9688C4.38366 42.2398 4.38366 42.2398 5.79588 47.5012C5.85586 47.7215 5.91555 47.9419 5.97493 48.1623C6.51119 50.1508 7.11892 52.1222 8.01524 53.9817C8.07242 54.1008 8.1296 54.2199 8.18851 54.3427C9.09497 56.1769 10.2733 57.8544 11.6212 59.3906C11.7774 59.5694 11.7774 59.5694 11.9368 59.7517C12.2379 60.0908 12.5433 60.4253 12.8517 60.7578C12.9619 60.8792 12.9619 60.8792 13.0744 61.003C14.6737 62.6905 16.7365 64.0309 18.7638 65.1377C18.9845 65.2589 19.2035 65.3834 19.4222 65.5083C22.2513 67.0376 25.4835 67.8141 28.6681 68.1104C28.8911 68.1317 29.1139 68.1563 29.3363 68.1832C30.4529 68.3051 31.1423 67.699 31.9923 67.0469C32.1354 66.9441 32.2785 66.8414 32.4259 66.7355C37.9395 62.6987 41.2726 56.6016 42.3402 49.9341C42.9457 45.7785 42.1967 41.8187 41.1091 37.8182C40.8494 36.8619 40.5945 35.9044 40.3392 34.9469C40.0867 34 39.8335 33.0534 39.5802 32.1067C39.5521 32.0016 39.5239 31.8965 39.495 31.7882C39.3315 31.1774 39.1676 30.5668 39.0032 29.9562C38.9523 29.7669 38.9015 29.5776 38.8508 29.3882C38.7808 29.127 38.7104 28.8658 38.64 28.6046C38.6003 28.4569 38.5606 28.3092 38.5197 28.157C38.4309 27.8138 38.4309 27.8138 38.2814 27.5352C36.677 27.5151 35.0945 27.5578 33.4962 27.6975Z" fill="#797979"/>
<path d="M34.3164 47.6328C34.8099 47.972 34.9682 48.179 35.1031 48.7623C35.2282 50.6627 33.7311 52.6925 32.5391 54.0586C32.468 54.1426 32.397 54.2267 32.3238 54.3133C30.5695 56.2356 27.7425 57.3971 25.1835 57.5294C22.1265 57.6176 19.4786 56.9046 17.1219 54.9029C16.5533 54.3492 16.1495 53.9213 16.1328 53.1015C16.3401 52.5451 16.5496 52.1412 17.0898 51.8711C17.7965 51.794 18.1498 51.8921 18.7305 52.2812C18.9377 52.4524 19.1427 52.6263 19.3457 52.8025C21.2779 54.3684 23.4408 54.6562 25.8398 54.4687C27.8006 54.1205 29.6429 53.0429 30.8231 51.4289C31.4501 50.5193 31.8964 49.614 32.2293 48.5546C32.6529 47.6369 33.3858 47.4406 34.3164 47.6328Z" fill="#797979"/>
<path d="M35.957 39.7031C37.0972 40.6164 37.0972 40.6164 37.3241 41.0703C37.4036 42.0396 37.4036 42.0396 37.0678 42.5657C36.5989 43.0207 36.2401 43.0461 35.6061 43.0421C35.1094 42.956 34.8276 42.6919 34.4488 42.374C33.7605 41.8372 32.9909 41.6632 32.1288 41.7539C31.2321 41.9569 30.4393 42.295 29.919 43.091C29.776 43.357 29.6429 43.6255 29.5141 43.8987C29.0698 44.8346 29.0698 44.8346 28.7162 45.0987C28.1982 45.2347 27.7215 45.1628 27.207 45.0352C26.7317 44.7381 26.6729 44.5347 26.5234 43.9927C26.4344 42.8226 27.1815 41.6737 27.8905 40.7969C29.9251 38.5954 33.3957 37.9871 35.957 39.7031Z" fill="#797979"/>
<path d="M51.1329 18.375C51.7085 18.7434 51.9427 19.1046 52.2095 19.7251C52.6179 20.586 53.0525 21.1256 53.9164 21.5361C54.8375 21.8427 55.786 21.7749 56.6529 21.3487C57.0347 21.1359 57.363 20.9136 57.7125 20.648C58.1755 20.3863 58.4252 20.363 58.9392 20.4627C59.4312 20.6516 59.6239 20.9377 59.8829 21.3828C59.979 21.9335 60.0105 22.2407 59.7456 22.7303C58.9379 23.7727 57.6178 24.4602 56.3282 24.6641C54.1357 24.8498 52.6452 24.3777 50.8338 23.1345C50.0135 22.3142 49.1206 21.0635 49.0698 19.8613C49.1038 19.3883 49.188 19.0974 49.4837 18.7254C49.9934 18.3392 50.5056 18.2518 51.1329 18.375Z" fill="#797979"/>
<path d="M20.0975 43.9414C21.2377 44.8547 21.2377 44.8547 21.4647 45.3086C21.5441 46.2778 21.5441 46.2778 21.2083 46.8039C20.7393 47.2591 20.3803 47.2844 19.7461 47.2803C19.2513 47.1944 18.975 46.9281 18.5968 46.6127C17.9351 46.1094 17.2185 45.9504 16.3975 46.0007C15.4656 46.1394 14.7789 46.4338 14.1844 47.1799C13.9068 47.5794 13.7102 47.9779 13.5264 48.4275C13.3642 48.8094 13.2655 48.9961 12.9625 49.2905C12.3976 49.4662 11.9159 49.4264 11.3475 49.2734C10.8813 48.9821 10.8152 48.7745 10.6553 48.248C10.5655 47.0718 11.3115 45.9081 12.0385 45.0394C14.1116 42.8748 17.511 42.2085 20.0975 43.9414Z" fill="#797979"/>
<path d="M35.2732 14.1367C35.848 14.5065 36.0829 14.866 36.3499 15.4868C36.7582 16.3477 37.1928 16.8873 38.0567 17.2978C38.9778 17.6044 39.9263 17.5366 40.7932 17.1103C41.175 16.8975 41.5033 16.6753 41.8528 16.4097C42.318 16.1467 42.5645 16.1321 43.0795 16.234C43.5485 16.3967 43.7497 16.5975 44.0232 17.0078C44.1548 17.5443 44.144 18.0066 43.8859 18.5016C43.079 19.5384 41.7514 20.2207 40.4685 20.4258C38.3396 20.6272 36.6518 20.1909 34.9832 18.8204C34.0903 18.0068 33.4301 16.9269 33.2139 15.7261C33.2236 15.1638 33.3139 14.8716 33.6326 14.4102C34.0832 14.043 34.7179 14.0147 35.2732 14.1367Z" fill="#797979"/>
</g>
<defs>
<clipPath id="clip0_811_133">
<rect width="70" height="70" fill="white" transform="translate(0 0.875)"/>
</clipPath>
</defs>
</svg>
