<svg width="70" height="71" viewBox="0 0 70 71" fill="none" xmlns="http://www.w3.org/2000/svg">
<g clip-path="url(#clip0_811_150)">
<path d="M2.65337 5.81953C2.77475 5.81777 2.89613 5.81602 3.02118 5.81421C3.15193 5.8132 3.28267 5.81219 3.41737 5.81115C3.55205 5.81004 3.68673 5.80894 3.8255 5.8078C4.11039 5.80591 4.39529 5.80445 4.68019 5.80337C5.1162 5.80101 5.55208 5.79501 5.98806 5.78898C6.26479 5.7876 6.54152 5.78644 6.81825 5.78551C7.01395 5.78192 7.01395 5.78192 7.2136 5.77826C8.1185 5.78123 8.1185 5.78123 8.55558 6.10425C8.75961 6.40485 8.86469 6.57495 8.88666 6.93748C8.75708 7.35613 8.65122 7.58307 8.33978 7.89451C7.96707 8.01671 7.61939 8.05064 7.22881 8.0593C7.06464 8.06339 7.06464 8.06339 6.89715 8.06756C6.78035 8.06984 6.66355 8.07213 6.54321 8.07448C6.4226 8.07733 6.30199 8.08017 6.17773 8.08309C5.79328 8.09202 5.40882 8.10008 5.02435 8.10813C4.76338 8.11404 4.5024 8.12 4.24143 8.12602C3.60235 8.14064 2.96326 8.1545 2.32416 8.16794C2.21424 8.65095 2.17023 9.09643 2.16985 9.59138C2.16941 9.739 2.16897 9.88663 2.16852 10.0387C2.16873 10.2001 2.16894 10.3615 2.16916 10.5278C2.16885 10.6998 2.16854 10.8719 2.16822 11.0492C2.16738 11.5264 2.1674 12.0037 2.16756 12.4809C2.16759 12.9957 2.16684 13.5106 2.16619 14.0254C2.16505 15.0338 2.16468 16.0422 2.1646 17.0506C2.16454 17.8701 2.16425 18.6895 2.16382 19.509C2.16262 21.8317 2.16199 24.1545 2.16209 26.4772C2.16209 26.6024 2.1621 26.7276 2.16211 26.8566C2.16211 26.982 2.16212 27.1074 2.16212 27.2365C2.16218 29.2694 2.16087 31.3024 2.15894 33.3353C2.15698 35.422 2.15603 37.5088 2.15615 39.5956C2.1562 40.7674 2.15582 41.9392 2.15435 43.1111C2.15311 44.1085 2.15281 45.1059 2.15374 46.1034C2.15418 46.6124 2.15419 47.1214 2.153 47.6304C2.15174 48.1818 2.15258 48.7332 2.15364 49.2847C2.15293 49.4461 2.15223 49.6075 2.15151 49.7737C2.15214 49.9214 2.15276 50.069 2.15341 50.2211C2.15338 50.3484 2.15335 50.4756 2.15332 50.6068C2.19072 50.9949 2.29994 51.2911 2.46088 51.6445C2.57662 51.6447 2.69237 51.6449 2.81163 51.6451C9.66736 51.6561 16.5231 51.6685 23.3788 51.6828C24.2015 51.6845 25.0241 51.6862 25.8468 51.6879C26.0105 51.6882 26.1743 51.6886 26.3431 51.6889C28.9971 51.6944 31.6511 51.6988 34.3052 51.703C37.0272 51.7072 39.7492 51.7125 42.4713 51.7187C44.1517 51.7225 45.8322 51.7256 47.5127 51.7275C48.6641 51.729 49.8155 51.7314 50.9669 51.7346C51.6318 51.7365 52.2967 51.7378 52.9616 51.7381C53.5699 51.7383 54.1782 51.7397 54.7865 51.7421C55.0069 51.7428 55.2274 51.743 55.4478 51.7427C55.7468 51.7424 56.0458 51.7437 56.3448 51.7454C56.5111 51.7458 56.6773 51.7461 56.8487 51.7464C57.284 51.7811 57.5818 51.8558 57.9687 52.0547C58.2995 52.4516 58.3825 52.6462 58.3618 53.1655C58.2362 53.5782 58.1671 53.7115 57.832 53.9687C57.5283 54.0181 57.5283 54.0181 57.1704 54.0153C57.0364 54.0153 56.9023 54.0152 56.7641 54.0152C56.6197 54.0131 56.4753 54.011 56.3265 54.0088C56.1043 54.0079 56.1043 54.0079 55.8776 54.007C55.404 54.0047 54.9304 53.9996 54.4567 53.9944C54.1358 53.9923 53.815 53.9904 53.4941 53.9888C52.707 53.9842 51.9199 53.9774 51.1328 53.9687C51.1363 54.0541 51.1399 54.1395 51.1436 54.2275C51.1579 54.6197 51.1667 55.0119 51.1755 55.4043C51.1812 55.5386 51.1869 55.6729 51.1928 55.8112C51.2082 56.7338 51.1001 57.3872 50.4492 58.0703C49.531 58.9133 48.0749 58.6852 46.9158 58.6706C46.6783 58.6696 46.4408 58.6688 46.2033 58.6682C45.5811 58.6661 44.959 58.6608 44.3369 58.6547C43.7008 58.6491 43.0647 58.6466 42.4287 58.6439C41.1829 58.638 39.9371 58.6287 38.6913 58.6172C38.7619 58.7543 38.8324 58.8914 38.9051 59.0327C39.7656 60.7059 39.7656 60.7059 40.1372 61.4315C40.6413 62.4149 41.1473 63.397 41.6664 64.3726C41.8832 64.7801 42.0984 65.1885 42.3135 65.5968C42.416 65.7903 42.5193 65.9834 42.6234 66.1761C42.7692 66.4458 42.9121 66.717 43.0546 66.9885C43.1772 67.2178 43.1772 67.2178 43.3022 67.4516C43.519 68.0268 43.5291 68.3968 43.4765 69.0078C43.1945 69.3581 43.1945 69.3581 42.7929 69.5547C41.9856 69.5407 41.9856 69.5407 41.6234 69.2437C41.3957 68.972 41.244 68.7019 41.0823 68.3862C41.0141 68.2538 40.9458 68.1214 40.8754 67.985C40.8004 67.8375 40.7254 67.69 40.6481 67.5381C40.5685 67.3829 40.4889 67.2277 40.4069 67.0679C40.2203 66.7039 40.0342 66.3396 39.8483 65.9752C39.5271 65.3459 39.204 64.7176 38.8807 64.0894C38.5793 63.5035 38.2786 62.9174 37.9779 62.3312C37.8267 62.0365 37.6753 61.7419 37.5238 61.4474C37.3089 61.0296 37.0948 60.6114 36.8809 60.1932C36.8152 60.0657 36.7495 59.9383 36.6818 59.807C36.6222 59.6901 36.5626 59.5733 36.5012 59.4529C36.4487 59.3505 36.3962 59.2481 36.3421 59.1426C36.2304 58.8906 36.2304 58.8906 36.2304 58.6172C32.4857 58.6172 28.741 58.6172 24.8828 58.6172C24.7925 58.8879 24.7023 59.1586 24.6093 59.4375C24.5022 59.6641 24.3896 59.8881 24.2718 60.1093C24.2057 60.2345 24.1396 60.3597 24.0715 60.4886C24.0008 60.6211 23.9302 60.7536 23.8574 60.8901C23.3159 61.9157 22.7826 62.9441 22.268 63.9834C21.8142 64.8976 21.3507 65.806 20.8752 66.7092C20.7939 66.8638 20.7939 66.8638 20.7109 67.0215C20.6061 67.2196 20.5008 67.4173 20.3947 67.6146C20.2821 67.8249 20.1712 68.0362 20.0616 68.2482C20.0039 68.3573 19.9461 68.4665 19.8866 68.5789C19.8353 68.6775 19.784 68.7761 19.7311 68.8776C19.5209 69.1886 19.326 69.3626 19.0038 69.5547C18.5312 69.5381 18.1885 69.5124 17.7905 69.2471C17.5755 68.9127 17.5245 68.7282 17.4999 68.3242C17.6368 67.8926 17.8434 67.4973 18.0468 67.0937C18.1101 66.9648 18.1733 66.8358 18.2385 66.703C18.4904 66.1935 18.7466 65.6864 19.0038 65.1797C19.0938 65.0024 19.0938 65.0024 19.1855 64.8216C20.1259 62.9692 21.0725 61.12 22.0227 59.2726C22.111 59.1002 22.1984 58.9272 22.2851 58.7539C22.1556 58.7534 22.0262 58.7529 21.8928 58.7524C20.6698 58.7473 19.4469 58.7394 18.224 58.7287C17.5953 58.7234 16.9667 58.7189 16.338 58.7168C15.7308 58.7148 15.1236 58.71 14.5163 58.7035C14.2852 58.7015 14.0541 58.7004 13.823 58.7003C11.3264 58.6978 11.3264 58.6978 10.3393 57.7627C9.83732 56.9132 9.80497 56.0224 9.8266 55.0625C9.82783 54.9566 9.82907 54.8506 9.83034 54.7415C9.83352 54.4839 9.83842 54.2263 9.84369 53.9687C9.74849 53.9699 9.65329 53.9712 9.5552 53.9724C8.65419 53.9834 7.75319 53.9917 6.85213 53.9971C6.38897 53.9999 5.92587 54.0038 5.46275 54.01C4.92923 54.0166 4.39579 54.0197 3.86224 54.0221C3.69743 54.025 3.53261 54.0278 3.3628 54.0307C2.28423 54.031 1.47548 53.9345 0.675522 53.1436C0.61331 53.0521 0.551098 52.9607 0.487 52.8664C0.42232 52.7746 0.357641 52.6828 0.291001 52.5882C0.00886978 52.1128 -0.0174171 51.7235 -0.0184108 51.183C-0.0190203 51.0295 -0.0196299 50.876 -0.0202579 50.7179C-0.0202327 50.5485 -0.0202074 50.3792 -0.0201815 50.2047C-0.0206841 50.0253 -0.0211867 49.846 -0.0217046 49.6612C-0.0230752 49.1623 -0.0235829 48.6634 -0.0239454 48.1645C-0.0244789 47.6268 -0.0257884 47.0892 -0.0269824 46.5515C-0.0296851 45.2525 -0.031061 43.9535 -0.0322773 42.6545C-0.0328764 42.0429 -0.0336101 41.4313 -0.0343264 40.8197C-0.0366524 38.7868 -0.0386342 36.754 -0.0396242 34.7211C-0.0398854 34.1935 -0.0401478 33.6659 -0.0404152 33.1382C-0.0404813 33.0071 -0.0405476 32.876 -0.0406157 32.7409C-0.0417506 30.6162 -0.0452148 28.4917 -0.0496548 26.3671C-0.0541752 24.1862 -0.0566385 22.0054 -0.0570755 19.8245C-0.0573716 18.5998 -0.058569 17.3752 -0.0620604 16.1506C-0.0650268 15.1077 -0.0661294 14.0648 -0.0647993 13.0218C-0.0641775 12.4898 -0.0644394 11.9578 -0.0670909 11.4257C-0.0699419 10.8486 -0.0685477 10.2716 -0.0667446 9.69458C-0.0682443 9.52675 -0.0697439 9.35892 -0.0712891 9.18601C-0.0632246 8.11862 0.0427107 7.31067 0.825059 6.51931C0.916527 6.4571 1.00799 6.39488 1.10223 6.33079C1.19405 6.26611 1.28588 6.20143 1.38048 6.13479C1.80876 5.88063 2.16617 5.82567 2.65337 5.81953ZM12.0312 53.9687C11.9158 55.2426 11.9158 55.2426 12.1679 56.4297C24.3044 56.4297 36.441 56.4297 48.9453 56.4297C48.9453 55.6176 48.9453 54.8054 48.9453 53.9687C36.7636 53.9687 24.582 53.9687 12.0312 53.9687Z" fill="#797979"/>
<path d="M61.9384 22.6917C62.3119 22.9901 62.6717 23.2979 63.0274 23.6172C63.1224 23.7009 63.2174 23.7846 63.3152 23.8709C65.7118 26.1143 67.1642 29.4629 67.2961 32.7229C67.3901 36.4621 66.3176 39.7702 63.8477 42.6211C64.0424 43.142 64.2823 43.6115 64.5591 44.0935C64.6471 44.2472 64.7351 44.4009 64.8258 44.5593C64.9213 44.725 65.0168 44.8907 65.1123 45.0564C65.2109 45.2281 65.3095 45.3997 65.408 45.5714C66.4708 47.4212 67.5392 49.2682 68.6313 51.1009C68.694 51.2065 68.7568 51.3121 68.8214 51.421C68.9355 51.6126 69.0501 51.804 69.1652 51.995C69.9343 53.2874 70.155 54.3889 70 55.8828C69.6899 56.947 69.0083 57.8214 68.0566 58.387C67.0473 58.8565 65.946 58.9435 64.8667 58.6637C63.741 58.2154 62.9941 57.4645 62.3748 56.4393C62.3277 56.3615 62.2805 56.2837 62.232 56.2036C61.7281 55.3672 61.2444 54.5192 60.763 53.6697C60.5727 53.3349 60.3821 53.0003 60.1915 52.6657C60.1436 52.5814 60.0956 52.4971 60.0462 52.4102C59.4481 51.3598 58.8426 50.3137 58.2369 49.2676C57.7751 48.4691 57.3195 47.6677 56.875 46.8594C56.7753 46.8693 56.6755 46.8791 56.5728 46.8893C52.5165 47.2499 48.6351 46.762 45.3711 44.1284C42.4891 41.712 40.6736 38.4681 40.3321 34.6914C40.1306 30.8554 41.1926 27.3147 43.7805 24.4327C48.4865 19.3498 56.3606 18.5927 61.9384 22.6917ZM45.019 26.3639C43.1181 28.7888 42.2047 31.7578 42.5506 34.8305C42.72 36.0889 43.0527 37.2392 43.6133 38.3828C43.6738 38.509 43.7342 38.6352 43.7965 38.7652C45.1146 41.3504 47.3985 43.2896 50.1256 44.2575C53.1789 45.1926 56.185 44.9697 59.0625 43.5782C61.8495 41.9942 63.8212 39.5942 64.7278 36.5286C65.5195 33.5715 65.0932 30.4972 63.6042 27.8293C61.7974 24.9897 59.2725 23.148 55.9864 22.3953C51.8031 21.6885 47.7952 23.1595 45.019 26.3639ZM61.1902 44.6975C60.4752 45.2111 59.7341 45.5622 58.9258 45.9024C60.4265 48.6647 61.973 51.4002 63.5743 54.1055C63.6637 54.257 63.6637 54.257 63.755 54.4115C63.9044 54.6634 64.0551 54.9145 64.2066 55.1651C64.2845 55.2941 64.3624 55.4231 64.4426 55.556C64.7825 56.0489 65.0507 56.375 65.625 56.5664C66.348 56.6589 66.348 56.6589 66.9981 56.3929C67.5868 55.9098 67.5868 55.9098 67.8481 55.2204C67.8851 54.3233 67.6351 53.7628 67.1802 53.0032C67.113 52.8862 67.0458 52.7692 66.9766 52.6487C66.7565 52.2668 66.5327 51.8874 66.3086 51.5078C66.1571 51.2472 66.0058 50.9864 65.8547 50.7254C65.5389 50.1813 65.2215 49.6381 64.903 49.0955C64.5416 48.4792 64.1829 47.8614 63.8263 47.2423C63.7794 47.1608 63.7324 47.0793 63.6841 46.9953C63.4557 46.5987 63.2277 46.2019 62.9997 45.8051C62.9179 45.6629 62.8361 45.5207 62.7518 45.3742C62.6795 45.2483 62.6072 45.1224 62.5327 44.9927C62.3864 44.7443 62.2303 44.5016 62.0704 44.2617C61.674 44.2617 61.5053 44.4611 61.1902 44.6975Z" fill="#797979"/>
<path d="M46.4841 12.1328C47.3117 12.7134 47.8759 13.3247 48.1248 14.3203C48.2869 15.4627 48.1184 16.3856 47.4412 17.3282C46.6817 18.1535 45.9862 18.5594 44.8622 18.6836C44.3883 18.7027 43.944 18.6338 43.4763 18.5586C43.4311 18.6977 43.4311 18.6977 43.385 18.8395C43.1498 19.3596 42.8263 19.7681 42.4766 20.2163C41.7606 21.1506 41.0908 22.1091 40.4335 23.0854C39.8804 23.9017 39.2918 24.6774 38.6677 25.4405C38.4125 25.8123 38.3087 26.0409 38.281 26.4883C38.3849 26.7095 38.4888 26.9307 38.5934 27.1516C38.8873 28.0348 38.7929 29.099 38.4124 29.9421C37.8934 30.881 37.2283 31.3179 36.2302 31.6836C35.2674 31.927 34.3933 31.8369 33.4959 31.4102C32.7096 30.8964 32.1363 30.264 31.8552 29.3594C31.7378 28.733 31.6517 28.1926 31.8552 27.5821C31.7557 27.5454 31.6561 27.5087 31.5536 27.4709C31.1778 27.3112 30.8685 27.1256 30.5297 26.899C30.4092 26.8228 30.2886 26.7466 30.1644 26.668C29.9136 26.5087 29.6654 26.3452 29.4199 26.1778C29.0415 25.9444 28.7329 25.7745 28.3006 25.668C27.8619 25.7763 27.5247 25.9364 27.1343 26.162C26.3798 26.5857 25.67 26.5456 24.857 26.3174C24.4516 26.1857 24.1839 26.0669 23.838 25.8095C23.3993 25.624 23.3993 25.624 23.0554 25.7845C22.6707 25.99 22.303 26.2121 21.9346 26.4456C21.6811 26.6003 21.4274 26.7546 21.1736 26.9086C21.0621 26.9785 20.9506 27.0484 20.8357 27.1205C20.5067 27.3091 20.1791 27.4499 19.824 27.5821C19.8522 27.7146 19.8804 27.8471 19.9094 27.9837C20.0288 28.8672 19.8323 29.6231 19.3198 30.3506C18.6465 31.169 17.8975 31.7103 16.8162 31.8203C15.6904 31.8643 14.8113 31.5947 13.9451 30.8633C13.0322 29.7741 12.8982 28.8438 12.9881 27.4453C13.246 26.5197 13.8404 25.7474 14.6335 25.2039C15.5444 24.7361 16.5663 24.6792 17.5548 24.9315C17.9179 25.0634 18.2531 25.2125 18.5737 25.4293C18.8794 25.5684 18.8794 25.5684 19.2406 25.4127C19.698 25.1792 20.1509 24.94 20.6016 24.6939C20.761 24.6151 20.9204 24.5363 21.0846 24.4552C21.9485 24.0101 21.9485 24.0101 22.412 23.205C22.4513 22.7723 22.4513 22.7723 22.4276 22.3569C22.4157 21.5961 22.8127 21.0633 23.2932 20.5069C24.4013 19.5571 25.233 19.4275 26.6599 19.5157C27.6254 19.676 28.246 20.2767 28.8474 21.0196C29.1232 21.4822 29.2622 21.8096 29.2473 22.351C29.2374 22.8108 29.2628 23.1753 29.3943 23.6172C29.8463 24.0709 30.3677 24.3241 30.9409 24.5999C31.0857 24.6761 31.2305 24.7523 31.3797 24.8309C32.1964 25.2839 32.1964 25.2839 33.0857 25.5313C33.3644 25.3571 33.6379 25.1744 33.906 24.9844C34.2615 24.8488 34.4569 24.8483 34.8374 24.9112C35.3619 24.989 35.7162 24.9887 36.2302 24.8477C36.8418 24.3484 37.2488 23.6329 37.6686 22.9741C37.9267 22.5736 38.2019 22.187 38.4792 21.7996C38.6838 21.5136 38.8858 21.2259 39.0875 20.9378C39.5452 20.2861 40.0105 19.6399 40.4771 18.9944C40.552 18.8906 40.627 18.7868 40.7043 18.6799C41.2714 17.8962 41.2714 17.8962 41.523 17.59C41.5811 17.5036 41.6392 17.4172 41.699 17.3282C41.6116 16.9896 41.6116 16.9896 41.4256 16.6446C41.0159 15.6433 41.0329 14.6736 41.4122 13.6645C41.8446 12.7967 42.4872 12.1574 43.3952 11.8076C44.4379 11.5579 45.5549 11.568 46.4841 12.1328ZM43.7669 14.2007C43.4397 14.6434 43.3284 14.8641 43.3396 15.4141C43.6469 15.9941 43.6469 15.9941 44.1599 16.3711C44.5717 16.4184 44.8564 16.4509 45.2537 16.3711C45.7041 15.977 45.9057 15.7229 46.0142 15.1321C45.9195 14.6378 45.7382 14.405 45.3904 14.0469C44.7925 13.748 44.2932 13.8116 43.7669 14.2007ZM24.6091 22.3867C24.5138 22.7744 24.5106 23.0933 24.6091 23.4805C24.8964 23.8556 25.1339 24.0794 25.5491 24.3008C26.0275 24.3008 26.3781 24.1077 26.7966 23.8907C27.1333 23.3857 27.1784 22.9726 27.0701 22.3867C26.7981 21.9788 26.6073 21.7575 26.1216 21.638C25.4024 21.5862 25.0203 21.77 24.6091 22.3867ZM15.3123 27.5821C15.0977 28.0112 15.1274 28.3393 15.1756 28.8125C15.4841 29.218 15.7209 29.4394 16.1924 29.6328C16.6946 29.6328 16.9511 29.5093 17.3631 29.2227C17.671 28.7891 17.671 28.7891 17.7732 28.2657C17.5934 27.6563 17.4849 27.3898 16.9529 27.0352C16.202 26.9517 15.848 27.0463 15.3123 27.5821ZM34.3333 27.3343C34.0339 27.7304 33.906 27.9095 33.906 28.4024C34.0864 28.933 34.2421 29.17 34.7007 29.4961C35.2429 29.6662 35.4531 29.6113 35.9568 29.3594C36.2958 29.1457 36.2958 29.1457 36.5037 28.8125C36.5884 28.2299 36.5711 27.9589 36.2473 27.4624C35.8765 27.0916 35.7569 27.0435 35.2305 26.9839C34.7117 26.9924 34.7117 26.9924 34.3333 27.3343Z" fill="#797979"/>
<path d="M27.5472 1.15559C27.6941 1.15385 27.8411 1.15211 27.9925 1.15031C28.15 1.15 28.3076 1.1497 28.4699 1.14939C28.6332 1.14848 28.7965 1.14757 28.9648 1.14663C29.3102 1.14525 29.6555 1.1446 30.0008 1.14465C30.5274 1.14405 31.0539 1.13908 31.5805 1.1339C31.9165 1.1331 32.2525 1.13255 32.5885 1.1323C32.8235 1.12935 32.8235 1.12935 33.0633 1.12634C34.1356 1.13243 34.8336 1.29592 35.6962 1.96382C36.3052 2.75043 36.2725 3.50405 36.2516 4.45574C36.2501 4.58924 36.2485 4.72275 36.2469 4.8603C36.2429 5.18817 36.2373 5.51594 36.2302 5.84375C36.3468 5.84312 36.4633 5.84249 36.5834 5.84184C39.4213 5.82674 42.2593 5.81543 45.0973 5.80833C46.4697 5.80481 47.8421 5.80001 49.2146 5.79218C50.411 5.78536 51.6075 5.78096 52.8039 5.77943C53.4372 5.77854 54.0705 5.77646 54.7038 5.77148C55.3005 5.76682 55.897 5.76541 56.4937 5.76643C56.7121 5.76625 56.9306 5.7649 57.149 5.76226C59.3894 5.73661 59.3894 5.73661 60.2927 6.52735C60.9372 7.34602 61.1334 8.03709 61.1373 9.07317C61.1382 9.17903 61.1391 9.28489 61.14 9.39396C61.1427 9.74419 61.1443 10.0944 61.1456 10.4447C61.1462 10.5643 61.1467 10.6839 61.1473 10.8071C61.1502 11.4398 61.1521 12.0725 61.1534 12.7052C61.1549 13.3591 61.1596 14.013 61.1651 14.6669C61.1686 15.1694 61.1698 15.672 61.1703 16.1746C61.1709 16.4157 61.1725 16.6568 61.1751 16.8979C61.1784 17.235 61.1783 17.572 61.1773 17.9091C61.1791 18.0088 61.1808 18.1085 61.1826 18.2112C61.1778 18.6796 61.1469 18.925 60.8564 19.3004C60.5117 19.556 60.3126 19.6419 59.8826 19.6523C59.513 19.489 59.275 19.3533 59.0452 19.0175C58.8789 18.5698 58.8834 18.1382 58.882 17.6669C58.8806 17.5641 58.8792 17.4613 58.8778 17.3555C58.8736 17.0167 58.8713 16.6779 58.8689 16.3391C58.8664 16.1038 58.8637 15.8686 58.8609 15.6333C58.8539 15.0148 58.8485 14.3962 58.8434 13.7777C58.8379 13.1463 58.8309 12.5148 58.8241 11.8834C58.8109 10.6449 58.7993 9.40647 58.7888 8.16797C58.64 8.16769 58.64 8.16769 58.4881 8.16741C52.6084 8.15639 46.7288 8.14396 40.8492 8.12968C40.1436 8.12797 39.4381 8.12627 38.7325 8.12458C38.592 8.12424 38.4515 8.12391 38.3068 8.12356C36.0307 8.11812 33.7546 8.11365 31.4785 8.10952C29.144 8.10527 26.8094 8.1 24.4749 8.09376C23.0337 8.08995 21.5926 8.08694 20.1514 8.08495C19.1639 8.08351 18.1763 8.08108 17.1888 8.07785C16.6185 8.07602 16.0483 8.07463 15.4781 8.07443C14.9564 8.07423 14.4346 8.07278 13.9128 8.07034C13.7238 8.06967 13.5348 8.06947 13.3458 8.06977C13.0893 8.07011 12.8327 8.06862 12.5762 8.06703C12.4336 8.06672 12.291 8.06641 12.1441 8.06609C11.7315 8.0289 11.441 7.94878 11.074 7.75782C10.7349 7.24914 10.7372 6.99247 10.8006 6.39063C10.9964 6.09063 10.9964 6.09063 11.3474 5.84375C11.7781 5.76465 12.2027 5.77471 12.6395 5.78167C12.7702 5.78159 12.901 5.78151 13.0357 5.78143C13.4678 5.78181 13.8997 5.78606 14.3317 5.79035C14.6314 5.79137 14.931 5.79215 15.2306 5.79269C16.0191 5.79478 16.8075 5.80015 17.596 5.8062C18.4006 5.8118 19.2052 5.81429 20.0098 5.81705C21.5885 5.82292 23.1672 5.83225 24.7459 5.84375C24.7433 5.60443 24.7433 5.60443 24.7408 5.36026C24.7394 5.14883 24.7381 4.9374 24.7368 4.72597C24.7356 4.62106 24.7344 4.51615 24.7331 4.40806C24.7291 3.52246 24.7632 2.73529 25.3723 2.0434C26.0291 1.44242 26.6486 1.16287 27.5472 1.15559ZM26.9334 3.65625C26.9334 4.37813 26.9334 5.1 26.9334 5.84375C29.3246 5.84375 31.7158 5.84375 34.1795 5.84375C34.2338 4.66173 34.2338 4.66173 34.0427 3.51953C33.7142 3.35527 33.507 3.36462 33.1402 3.36296C33.0097 3.36208 32.8792 3.36121 32.7448 3.36031C32.6035 3.36016 32.4622 3.36001 32.3167 3.35985C32.172 3.3594 32.0274 3.35894 31.8784 3.35847C31.5722 3.35778 31.2661 3.35746 30.9599 3.35748C30.49 3.35718 30.0201 3.3547 29.5503 3.35211C29.2533 3.35171 28.9564 3.35143 28.6594 3.35131C28.5182 3.35032 28.3769 3.34934 28.2313 3.34833C28.1008 3.34875 27.9704 3.34917 27.8359 3.3496C27.7208 3.34941 27.6056 3.34921 27.487 3.34901C27.1761 3.35728 27.1761 3.35728 26.9334 3.65625Z" fill="#797979"/>
<path d="M59.4309 25.4234C59.8492 25.7518 60.0091 25.9042 60.1563 26.4285C60.1563 27.0938 60.1563 27.0938 59.8828 27.4453C59.5642 27.6843 59.3758 27.7188 58.9771 27.7188C58.4231 27.5546 58.0081 27.2813 57.5212 26.9753C55.8301 26.0062 53.8077 25.8078 51.919 26.2319C49.9394 26.8132 48.288 27.9533 47.2369 29.7567C46.321 31.6408 45.9945 33.6011 46.5784 35.6399C46.6783 35.9182 46.7834 36.1947 46.8946 36.4688C46.9409 36.5877 46.9873 36.7067 47.035 36.8292C47.7769 38.5111 49.1848 39.7521 50.8546 40.4715C52.8022 41.2061 54.9413 41.2557 56.875 40.4336C58.0714 39.8283 59.0809 39.0575 59.8828 37.9727C59.9482 37.886 60.0136 37.7992 60.081 37.7099C61.1917 36.0956 61.5118 33.9539 61.1678 32.0484C61.0666 31.6504 60.9573 31.2567 60.8399 30.8633C60.5201 29.769 60.5201 29.769 60.7032 29.2312C61.0584 28.8649 61.2921 28.755 61.7969 28.6758C62.3169 28.8623 62.5604 28.9863 62.8373 29.4715C62.8887 29.6206 62.9402 29.7697 62.9932 29.9233C63.0461 30.0703 63.0989 30.2173 63.1534 30.3688C63.9919 33.1819 63.6937 35.9072 62.324 38.4976C61.9696 39.1013 61.5774 39.6371 61.1133 40.1602C61.0455 40.2407 60.9776 40.3212 60.9077 40.4042C59.3591 42.1081 56.8811 43.2394 54.593 43.3506C51.5152 43.408 48.9686 42.5665 46.7124 40.401C45.4046 39.0397 44.6046 37.474 44.1602 35.6484C44.1341 35.5452 44.108 35.4419 44.0811 35.3355C43.6609 32.6351 44.2582 30.0049 45.7843 27.7492C47.3855 25.6498 49.4852 24.3405 52.0653 23.8116C54.638 23.4702 57.2862 23.8903 59.4309 25.4234Z" fill="#797979"/>
<path d="M24.4128 31.611C24.5827 31.6102 24.5827 31.6102 24.756 31.6094C24.995 31.609 25.234 31.61 25.473 31.6123C25.8386 31.6152 26.2038 31.6123 26.5693 31.6088C26.8018 31.6092 27.0343 31.6099 27.2668 31.611C27.4304 31.6093 27.4304 31.6093 27.5974 31.6076C28.0346 31.615 28.3634 31.6378 28.7396 31.8703C29.1283 32.4424 29.0604 33.0133 29.0551 33.6895C29.056 33.8381 29.057 33.9866 29.058 34.1397C29.0604 34.6312 29.0588 35.1227 29.057 35.6143C29.0573 35.9555 29.0579 36.2967 29.0585 36.6379C29.0593 37.3532 29.0582 38.0686 29.0556 38.7839C29.0526 39.6105 29.0536 40.4371 29.0566 41.2638C29.0594 42.0595 29.0591 42.8551 29.0575 43.6508C29.0571 43.9892 29.0576 44.3276 29.0589 44.666C29.0602 45.1387 29.0581 45.6113 29.0551 46.0839C29.0562 46.2243 29.0573 46.3646 29.0584 46.5092C29.0472 47.4505 29.0472 47.4505 28.7396 47.9032C28.2715 48.1923 27.8002 48.1679 27.2668 48.1625C27.0969 48.1633 27.0969 48.1633 26.9236 48.1641C26.6846 48.1644 26.4456 48.1634 26.2066 48.1611C25.841 48.1582 25.4758 48.1611 25.1103 48.1646C24.8778 48.1642 24.6453 48.1635 24.4128 48.1625C24.3037 48.1636 24.1946 48.1647 24.0822 48.1658C23.645 48.1585 23.3162 48.1356 22.94 47.9032C22.5513 47.331 22.6192 46.7602 22.6245 46.0839C22.6235 45.9354 22.6226 45.7868 22.6216 45.6338C22.6192 45.1422 22.6208 44.6507 22.6226 44.1592C22.6223 43.818 22.6217 43.4767 22.621 43.1355C22.6202 42.4202 22.6214 41.7049 22.624 40.9895C22.6269 40.1629 22.626 39.3363 22.623 38.5097C22.6202 37.714 22.6205 36.9183 22.6221 36.1226C22.6224 35.7842 22.622 35.4458 22.6207 35.1074C22.6193 34.6347 22.6214 34.1622 22.6245 33.6895C22.6234 33.5492 22.6223 33.4088 22.6211 33.2642C22.6324 32.323 22.6324 32.323 22.94 31.8703C23.408 31.5811 23.8794 31.6055 24.4128 31.611ZM24.8828 33.8711C24.8828 37.8414 24.8828 41.8117 24.8828 45.9023C25.5144 45.9023 26.146 45.9023 26.7968 45.9023C26.7968 41.932 26.7968 37.9617 26.7968 33.8711C26.1652 33.8711 25.5335 33.8711 24.8828 33.8711Z" fill="#797979"/>
<path d="M15.0649 36.7929C15.2249 36.7924 15.2249 36.7924 15.3881 36.7919C15.6129 36.792 15.8376 36.7939 16.0624 36.7973C16.4055 36.802 16.748 36.8001 17.0911 36.7975C17.3101 36.7984 17.529 36.7997 17.748 36.8015C17.85 36.8008 17.952 36.8001 18.0571 36.7994C18.5217 36.8099 18.8332 36.8588 19.2362 37.0955C19.6614 37.5417 19.6368 37.7976 19.6373 38.4079C19.6382 38.5058 19.6392 38.6037 19.6402 38.7045C19.6425 39.0275 19.6399 39.3501 19.637 39.6731C19.6371 39.8978 19.6374 40.1226 19.638 40.3473C19.6384 40.8181 19.6363 41.2888 19.6326 41.7595C19.6279 42.3627 19.6288 42.9658 19.6313 43.569C19.6328 44.033 19.6315 44.497 19.6295 44.961C19.6288 45.1834 19.6288 45.4058 19.6297 45.6282C19.6304 45.9392 19.6277 46.2499 19.6239 46.5608C19.6231 46.7377 19.6222 46.9146 19.6213 47.0968C19.551 47.543 19.551 47.543 19.3061 47.8734C18.8461 48.2031 18.3784 48.168 17.8335 48.1625C17.6636 48.1633 17.6636 48.1633 17.4903 48.1641C17.2513 48.1644 17.0122 48.1634 16.7732 48.1611C16.4077 48.1582 16.0425 48.1611 15.6769 48.1646C15.4444 48.1642 15.2119 48.1635 14.9795 48.1625C14.8703 48.1636 14.7612 48.1647 14.6488 48.1658C14.1932 48.1581 13.8822 48.1427 13.5068 47.8724C13.1743 47.4251 13.1917 47.1302 13.189 46.5755C13.1878 46.4792 13.1866 46.3829 13.1854 46.2836C13.1823 45.9658 13.1832 45.6482 13.1845 45.3304C13.1838 45.109 13.1829 44.8877 13.1819 44.6663C13.1805 44.2026 13.1811 43.7389 13.1831 43.2751C13.1855 42.6814 13.1823 42.0879 13.1774 41.4942C13.1744 41.0371 13.1746 40.58 13.1758 40.1229C13.1759 39.9041 13.1749 39.6852 13.1729 39.4664C13.1705 39.16 13.1725 38.854 13.1756 38.5476C13.1758 38.3735 13.1759 38.1993 13.176 38.0199C13.375 36.9603 14.1018 36.7758 15.0649 36.7929ZM15.4494 39.0664C15.4494 41.3223 15.4494 43.5781 15.4494 45.9023C16.0811 45.9023 16.7127 45.9023 17.3635 45.9023C17.3635 43.6465 17.3635 41.3906 17.3635 39.0664C16.7318 39.0664 16.1002 39.0664 15.4494 39.0664Z" fill="#797979"/>
<path d="M33.9022 36.8111C34.0058 36.8109 34.1094 36.8107 34.2162 36.8105C34.4345 36.8107 34.6528 36.8123 34.8712 36.8151C35.2043 36.8191 35.5371 36.8179 35.8702 36.8161C36.0829 36.817 36.2956 36.8181 36.5084 36.8196C36.6074 36.8192 36.7064 36.8188 36.8084 36.8184C37.4118 36.8296 37.8014 36.9175 38.2815 37.2891C38.4809 37.6879 38.4389 38.0408 38.4424 38.4863C38.4437 38.6287 38.4437 38.6287 38.4451 38.7741C38.4478 39.0889 38.4494 39.4037 38.4507 39.7185C38.4513 39.826 38.4519 39.9335 38.4524 40.0442C38.4553 40.6132 38.4572 41.1823 38.4585 41.7513C38.46 42.3388 38.4647 42.9263 38.4702 43.5139C38.4737 43.9658 38.4749 44.4177 38.4754 44.8696C38.476 45.0862 38.4776 45.3027 38.4802 45.5193C38.4835 45.8227 38.4834 46.1259 38.4824 46.4294C38.4832 46.6019 38.484 46.7744 38.4849 46.9522C38.4057 47.4911 38.2647 47.7178 37.8713 48.0898C37.455 48.1576 37.1164 48.1827 36.7006 48.1758C36.5308 48.1763 36.5308 48.1763 36.3575 48.1768C36.1184 48.1767 35.8794 48.1749 35.6404 48.1714C35.2748 48.1668 34.9097 48.1686 34.5441 48.1713C34.3116 48.1703 34.0791 48.169 33.8466 48.1673C33.683 48.1683 33.683 48.1683 33.516 48.1693C33.0614 48.1597 32.7489 48.1422 32.374 47.8732C32.0394 47.4219 32.0589 47.1199 32.0562 46.5608C32.055 46.4629 32.0538 46.3651 32.0526 46.2642C32.0495 45.9413 32.0504 45.6186 32.0517 45.2956C32.051 45.0709 32.0501 44.8462 32.0491 44.6214C32.0477 44.1507 32.0483 43.68 32.0503 43.2092C32.0527 42.606 32.0494 42.0029 32.0446 41.3997C32.0416 40.9357 32.0418 40.4717 32.043 40.0077C32.0431 39.7853 32.0421 39.5629 32.0401 39.3405C32.0377 39.0296 32.0397 38.7189 32.0428 38.4079C32.043 38.231 32.0431 38.0542 32.0432 37.8719C32.1291 37.4258 32.1291 37.4258 32.4447 37.0952C32.93 36.81 33.3549 36.8026 33.9022 36.8111ZM34.3166 39.0664C34.3166 41.3223 34.3166 43.5781 34.3166 45.9023C34.9482 45.9023 35.5799 45.9023 36.2307 45.9023C36.2307 43.6465 36.2307 41.3906 36.2307 39.0664C35.599 39.0664 34.9674 39.0664 34.3166 39.0664Z" fill="#797979"/>
<path d="M43.2033 43.0313C43.4761 43.2786 43.6004 43.4724 43.6458 43.8407C43.6538 44.1529 43.6492 44.4622 43.6391 44.7744C43.6363 44.937 43.6363 44.937 43.6335 45.1029C43.6287 45.3694 43.6213 45.6359 43.6134 45.9024C43.7093 45.9002 43.8051 45.8981 43.9038 45.8959C44.3396 45.8873 44.7755 45.882 45.2113 45.8767C45.3621 45.8733 45.5129 45.8699 45.6682 45.8663C45.8141 45.865 45.9599 45.8637 46.1102 45.8623C46.2441 45.8602 46.3779 45.858 46.5159 45.8558C46.9661 45.9111 47.2148 46.0448 47.5783 46.3125C47.8517 46.7227 47.8517 46.7227 47.8261 47.2012C47.6769 47.8438 47.6769 47.8438 47.3049 48.0899C46.9091 48.1323 46.5434 48.1506 46.1475 48.1491C46.0341 48.1499 45.9207 48.1506 45.8038 48.1513C45.564 48.1522 45.3241 48.152 45.0843 48.1508C44.7175 48.1497 44.3511 48.1536 43.9843 48.158C43.7512 48.1582 43.5181 48.1581 43.285 48.1577C43.1207 48.16 43.1207 48.16 42.9531 48.1623C42.4625 48.1562 42.1703 48.1351 41.7712 47.8378C41.2877 47.1542 41.4008 46.3803 41.4003 45.5777C41.3986 45.4353 41.397 45.2928 41.3952 45.1461C41.395 45.0083 41.3947 44.8705 41.3944 44.7285C41.3939 44.603 41.3933 44.4774 41.3927 44.3481C41.4449 43.783 41.5678 43.4143 42.007 43.0484C42.4801 42.8548 42.7196 42.8735 43.2033 43.0313Z" fill="#797979"/>
</g>
<defs>
<clipPath id="clip0_811_150">
<rect width="70" height="70" fill="white" transform="translate(0 0.375)"/>
</clipPath>
</defs>
</svg>
