<svg width="70" height="71" viewBox="0 0 70 71" fill="none" xmlns="http://www.w3.org/2000/svg">
<g clip-path="url(#clip0_811_143)">
<path d="M24.3103 12.3721C26.7166 14.2545 28.3093 16.7319 28.7109 19.789C28.9588 22.9554 28.0144 25.7533 26.0086 28.2101C25.505 28.7524 24.9314 29.196 24.3359 29.6328C24.4101 29.6643 24.4844 29.6959 24.5609 29.7284C26.0416 30.3625 27.4047 31.0069 28.7109 31.957C28.9837 32.1403 29.257 32.3228 29.5312 32.5039C29.9727 32.2975 30.3594 32.0432 30.7617 31.769C32.5071 30.646 34.5107 30.3682 36.5439 30.6529C37.8982 30.957 39.1816 31.5466 40.1953 32.5039C40.8496 32.2837 41.3651 31.915 41.9299 31.5298C43.1128 30.7401 44.3503 30.1691 45.664 29.6328C45.5102 29.5181 45.5102 29.5181 45.3532 29.401C43.0717 27.6137 41.6902 25.1359 41.289 22.25C41.1143 19.371 41.724 16.5821 43.6282 14.3304C43.7135 14.2369 43.7988 14.1433 43.8867 14.0469C43.9861 13.935 44.0855 13.823 44.1879 13.7077C46.105 11.6639 48.7499 10.5396 51.5415 10.4438C54.6349 10.4115 57.2079 11.5651 59.4299 13.6623C61.407 15.7044 62.4201 18.4134 62.392 21.2384C62.3081 23.8871 61.2687 26.6641 59.3338 28.5316C58.8938 28.921 58.4393 29.2813 57.9687 29.6328C58.0987 29.6925 58.0987 29.6925 58.2313 29.7535C62.1511 31.5646 65.2566 33.8256 67.539 37.5625C67.5888 37.6435 67.6385 37.7245 67.6897 37.808C69.282 40.4547 70.0196 43.4414 70.0512 46.509C70.0532 46.645 70.0551 46.7811 70.0571 46.9212C70.0429 49.0619 69.0799 50.5783 67.6362 52.1065C59.7321 59.7486 44.9228 60.305 32.5963 60.2728C22.9084 60.0951 9.48881 59.0584 2.18747 51.918C0.358487 50.0008 -0.0695564 48.2556 -0.0374171 45.6956C0.0696723 42.1103 1.46504 38.58 3.69137 35.7851C3.7757 35.6789 3.7757 35.6789 3.86174 35.5705C5.19421 33.9054 6.69162 32.5717 8.47653 31.4101C8.58862 31.3358 8.7007 31.2614 8.81619 31.1848C9.82825 30.5429 10.9292 30.0949 12.0312 29.6328C11.8951 29.5115 11.8951 29.5115 11.7562 29.3877C11.3908 29.0607 11.0272 28.7318 10.664 28.4023C10.5428 28.2924 10.4215 28.1824 10.2966 28.0691C8.28941 25.8449 7.50668 23.0505 7.63292 20.1022C7.79785 17.8853 8.75831 15.6877 10.2539 14.0469C10.3533 13.935 10.4527 13.823 10.5551 13.7077C14.1196 9.90745 20.0731 9.4368 24.3103 12.3721ZM12.1989 16.2344C10.9343 17.8264 10.3113 19.8096 10.5273 21.8398C10.8998 24.046 11.7909 25.7126 13.5351 27.1719C15.3743 28.4567 17.3386 28.9389 19.5721 28.6128C21.2679 28.2334 22.5761 27.4452 23.789 26.2148C23.8676 26.1376 23.9462 26.0604 24.0272 25.9809C25.3641 24.5609 25.9331 22.5622 25.8783 20.6489C25.6843 18.3804 24.7342 16.6737 23.1054 15.1406C19.6796 12.3251 15.0744 12.9915 12.1989 16.2344ZM45.8317 16.2344C44.5268 17.8771 43.9482 19.8889 44.1601 21.9765C44.5401 24.1366 45.4855 25.7643 47.1679 27.1719C49.0071 28.4567 50.9714 28.9389 53.2049 28.6128C54.9007 28.2334 56.2089 27.4452 57.4218 26.2148C57.5004 26.1376 57.579 26.0604 57.66 25.9809C58.9079 24.6555 59.4674 22.8082 59.5239 21.0195C59.448 18.6164 58.4538 16.7554 56.7382 15.1406C53.3124 12.3251 48.7072 12.9915 45.8317 16.2344ZM6.8044 36.5302C4.20199 39.5984 2.64491 43.313 2.84129 47.3786C2.90685 48.0416 3.16057 48.5221 3.55465 49.0469C3.62779 49.148 3.70093 49.2492 3.77629 49.3534C7.64274 54.1594 15.973 55.5972 21.7382 56.4297C21.9046 56.097 21.9162 55.7903 21.9493 55.4239C22.2156 52.5762 23.2073 50.1825 25.0195 47.9531C25.0949 47.8551 25.1704 47.7571 25.2481 47.6562C26.4531 46.1648 28.1144 45.2354 29.8047 44.3984C29.6183 43.9819 29.404 43.6988 29.0869 43.373C27.7062 41.8198 27.2407 39.8577 27.3026 37.8247C27.3608 37.0664 27.5392 36.3747 27.7539 35.6484C27.8019 35.4211 27.8482 35.1933 27.8906 34.9648C21.5316 30.0469 12.3285 30.4643 6.8044 36.5302ZM42.1093 34.9648C42.1744 35.3154 42.248 35.6551 42.3491 35.9972C42.9923 38.1937 42.7297 40.3375 41.6757 42.3605C41.3234 42.9206 40.8978 43.3855 40.4356 43.8569C40.1649 44.0989 40.1649 44.0989 40.1953 44.3984C40.3275 44.4647 40.4596 44.531 40.5958 44.5992C41.7023 45.1646 42.673 45.7645 43.6132 46.5859C43.7067 46.6598 43.8001 46.7336 43.8963 46.8097C44.7285 47.4836 45.3303 48.3073 45.9375 49.1836C46.0138 49.2934 46.0901 49.4032 46.1687 49.5163C47.3639 51.3669 47.9874 53.6502 48.0828 55.8331C48.0949 56.1817 48.0949 56.1817 48.3984 56.4297C48.7698 56.4081 48.7698 56.4081 49.2032 56.3154C49.3718 56.2832 49.5403 56.251 49.7139 56.2178C49.8992 56.1804 50.0845 56.1427 50.2697 56.105C50.3638 56.0862 50.4579 56.0674 50.5548 56.048C59.4541 54.2785 59.4541 54.2785 66.5067 48.9764C67.0277 48.1417 67.2013 47.4473 67.1887 46.4834C67.1877 46.3709 67.1866 46.2584 67.1855 46.1425C67.0973 42.7516 65.6781 39.6323 63.5742 37.0156C63.4956 36.9159 63.417 36.8161 63.336 36.7133C62.6878 35.9287 61.9177 35.3099 61.1132 34.6914C61.0064 34.6082 60.8996 34.525 60.7896 34.4393C55.1759 30.281 47.5045 30.7474 42.1093 34.9648ZM31.1975 35.2126C30.2997 36.3 29.9617 37.5376 30.0781 38.9297C30.3239 40.3752 30.9698 41.4809 32.0995 42.4155C33.2211 43.177 34.5762 43.4739 35.9084 43.2417C37.3098 42.9085 38.4236 42.1802 39.2382 40.9805C39.8385 39.7855 40.1499 38.5006 39.8284 37.178C39.3765 35.8279 38.5605 34.6633 37.2873 33.9774C35.0969 32.9639 32.846 33.4519 31.1975 35.2126ZM28.164 48.7734C27.9962 48.9225 27.9962 48.9225 27.8249 49.0746C25.8898 50.8897 24.8483 53.2991 24.6713 55.9218C24.6595 56.0938 24.6478 56.2658 24.6356 56.4431C24.627 56.574 24.6183 56.7049 24.6093 56.8398C31.5395 57.4887 38.4624 57.658 45.3906 56.8398C45.2956 53.7586 44.3307 51.1881 42.1093 49.0469C42.0112 48.9461 41.913 48.8452 41.8119 48.7414C39.9694 46.951 37.3338 46.133 34.8072 46.133C32.3743 46.1812 29.9653 47.1316 28.164 48.7734Z" fill="#797979"/>
<path d="M61.1648 38.3316C61.3186 38.3258 61.3186 38.3258 61.4756 38.3198C62.081 38.4385 62.4049 38.8259 62.7579 39.3094C64.2181 41.7253 65.3326 44.378 65.0784 47.2696C64.8672 47.7763 64.6097 48.1056 64.1213 48.3633C63.4431 48.4373 63.0182 48.3832 62.4807 47.9532C62.2432 47.5592 62.1636 47.227 62.1197 46.7718C62.1063 46.649 62.093 46.5263 62.0792 46.3997C62.0651 46.2695 62.0509 46.1392 62.0364 46.0049C61.7877 43.9947 61.2009 42.3722 60.0198 40.7071C59.6802 40.1977 59.6943 39.9432 59.7463 39.3399C60.0614 38.6646 60.4078 38.3445 61.1648 38.3316Z" fill="#797979"/>
<path d="M59.0369 35.8621C59.4215 36.2906 59.532 36.5815 59.6094 37.1523C59.4569 37.6906 59.3136 38.0048 58.9002 38.3828C58.3705 38.5711 57.9575 38.5442 57.4219 38.3828C56.9372 38.0721 56.8835 37.8707 56.7469 37.3062C56.703 36.7463 56.8255 36.3896 57.1485 35.9219C57.7154 35.4764 58.429 35.5243 59.0369 35.8621Z" fill="#797979"/>
</g>
<defs>
<clipPath id="clip0_811_143">
<rect width="70" height="70" fill="white" transform="translate(0 0.375)"/>
</clipPath>
</defs>
</svg>
