<svg width="24" height="25" viewBox="0 0 24 25" fill="none" xmlns="http://www.w3.org/2000/svg">
<g clip-path="url(#clip0_718_4667)">
<path d="M24 12.0371C24 5.40969 18.6274 0.0371094 12 0.0371094C5.37258 0.0371094 0 5.40969 0 12.0371C0 18.0266 4.3882 22.9911 10.125 23.8913V15.5059H7.07812V12.0371H10.125V9.39336C10.125 6.38586 11.9166 4.72461 14.6576 4.72461C15.9701 4.72461 17.3438 4.95898 17.3438 4.95898V7.91211H15.8306C14.34 7.91211 13.875 8.83719 13.875 9.78711V12.0371H17.2031L16.6711 15.5059H13.875V23.8913C19.6118 22.9911 24 18.0266 24 12.0371Z" fill="white"/>
</g>
<defs>
<clipPath id="clip0_718_4667">
<rect width="24" height="24" fill="white" transform="translate(0 0.0371094)"/>
</clipPath>
</defs>
</svg>
