<svg width="70" height="71" viewBox="0 0 70 71" fill="none" xmlns="http://www.w3.org/2000/svg">
<path d="M48.0869 30.8824C48.2816 30.8816 48.4763 30.8806 48.671 30.8795C49.1938 30.877 49.7165 30.8779 50.2393 30.8797C50.7885 30.8811 51.3376 30.8798 51.8868 30.8789C52.8071 30.8779 53.7275 30.8792 54.6479 30.8818C55.7115 30.8848 56.7751 30.8838 57.8387 30.8808C58.7544 30.8783 59.67 30.878 60.5857 30.8794C61.1316 30.8803 61.6775 30.8804 62.2234 30.8786C62.7355 30.877 63.2475 30.8781 63.7596 30.8813C63.9474 30.882 64.1352 30.8818 64.3231 30.8806C64.5793 30.8791 64.8356 30.8813 65.0918 30.8837C65.2352 30.8839 65.3786 30.8841 65.5263 30.8843C65.8983 30.9531 65.8983 30.9531 66.2178 31.1498C66.5641 31.6833 66.5207 32.1738 66.5146 32.7974C66.5154 32.9303 66.5163 33.0633 66.5172 33.2003C66.5193 33.647 66.5176 34.0937 66.5159 34.5404C66.5166 34.8602 66.5176 35.1799 66.5188 35.4997C66.5213 36.3692 66.5203 37.2386 66.5186 38.108C66.5173 38.9248 66.5183 39.7415 66.5191 40.5583C66.5207 42.2745 66.5189 43.9907 66.5159 45.7069C66.5135 47.1798 66.5139 48.6527 66.5164 50.1257C66.5194 51.8357 66.5205 53.5457 66.5188 55.2558C66.518 56.1611 66.5179 57.0665 66.5197 57.9719C66.5212 58.8229 66.5202 59.6739 66.517 60.525C66.5163 60.8378 66.5165 61.1507 66.5177 61.4635C66.5192 61.8896 66.5173 62.3156 66.5146 62.7417C66.5158 62.8663 66.517 62.991 66.5183 63.1194C66.5118 63.639 66.5051 63.946 66.2194 64.3892C65.809 64.6406 65.5467 64.6551 65.0659 64.6563C64.8952 64.658 64.7244 64.6598 64.5485 64.6616C64.3596 64.6607 64.1707 64.6598 63.9818 64.6589C63.7826 64.6598 63.5833 64.661 63.3841 64.6624C62.8428 64.6655 62.3015 64.6651 61.7602 64.6639C61.3074 64.6632 60.8546 64.6642 60.4018 64.6652C59.3321 64.6675 58.2624 64.667 57.1927 64.6647C56.0926 64.6624 54.9925 64.6646 53.8924 64.669C52.9458 64.6727 51.9993 64.6737 51.0527 64.6725C50.4883 64.6718 49.924 64.6721 49.3596 64.6749C48.8275 64.6775 48.2956 64.6766 47.7635 64.6733C47.5696 64.6726 47.3757 64.673 47.1817 64.6748C45.2264 64.691 43.6625 64.1866 42.2459 62.8086C41.0755 61.5738 40.5902 59.9823 40.5861 58.3099C40.5857 58.2182 40.5853 58.1266 40.5849 58.0321C40.5837 57.7267 40.5835 57.4214 40.5833 57.116C40.5826 56.8963 40.5819 56.6766 40.5812 56.4569C40.5794 55.8611 40.5785 55.2653 40.5779 54.6695C40.5775 54.2967 40.5769 53.9239 40.5763 53.5511C40.5745 52.383 40.5731 51.2148 40.5726 50.0467C40.572 48.7014 40.5696 47.3562 40.5656 46.011C40.5627 44.9691 40.5613 43.9272 40.5611 42.8853C40.561 42.264 40.5602 41.6427 40.5577 41.0215C40.5555 40.4363 40.5552 39.8513 40.5564 39.2661C40.5565 39.0525 40.5559 38.8389 40.5545 38.6253C40.5412 36.3971 40.9049 34.4111 42.4804 32.7444C44.0941 31.2603 45.9508 30.8691 48.0869 30.8824ZM43.6766 35.0477C42.9211 36.169 42.89 37.3106 42.8985 38.6241C42.8984 38.7869 42.8984 38.9498 42.8983 39.1175C42.8985 39.561 42.8999 40.0043 42.9018 40.4478C42.9035 40.9123 42.9036 41.3769 42.904 41.8414C42.9048 42.7198 42.9071 43.5981 42.9098 44.4764C42.9129 45.4769 42.9144 46.4774 42.9157 47.4779C42.9186 49.5348 42.9234 51.5916 42.9295 53.6484C43.0451 53.5924 43.1607 53.5363 43.2798 53.4786C43.4349 53.4049 43.59 53.3313 43.7498 53.2554C43.9021 53.1824 44.0544 53.1094 44.2112 53.0343C45.3611 52.556 46.3726 52.5133 47.6065 52.5111C47.7901 52.5098 47.9736 52.5084 48.1572 52.5069C48.646 52.5032 49.1349 52.5011 49.6237 52.4993C50.0835 52.4974 50.5432 52.494 51.003 52.4908C52.345 52.4821 53.6871 52.4758 55.0291 52.4692C58.0294 52.4523 61.0297 52.4354 64.1209 52.418C64.1209 46.1016 64.1209 39.7852 64.1209 33.2773C59.7643 33.2604 59.7643 33.2604 55.3196 33.2432C53.9465 33.2357 53.9465 33.2357 52.5455 33.2281C51.7215 33.2262 51.7215 33.2262 50.8975 33.2251C50.5317 33.2243 50.1661 33.2226 49.8005 33.2196C49.245 33.2151 48.6897 33.215 48.1342 33.2153C47.9726 33.2133 47.811 33.2113 47.6446 33.2093C45.988 33.2176 44.7139 33.7307 43.6766 35.0477ZM43.7498 56.1094C43.0988 57.1781 42.7724 58.159 42.9781 59.4136C43.2555 60.4654 43.9763 61.3443 44.8954 61.9178C45.6999 62.2935 46.4981 62.4157 47.3839 62.4149C47.6065 62.4152 47.6065 62.4152 47.8335 62.4154C47.9942 62.415 48.1549 62.4145 48.3205 62.414C48.4913 62.414 48.6621 62.414 48.8381 62.414C49.3047 62.4139 49.7713 62.4133 50.2378 62.4123C50.7261 62.4114 51.2144 62.4114 51.7027 62.4112C52.6265 62.4108 53.5503 62.4097 54.4742 62.4083C55.7231 62.4065 56.9721 62.4057 58.221 62.4049C60.1876 62.4036 62.1543 62.4009 64.1209 62.3984C64.1209 59.8719 64.1209 57.3453 64.1209 54.7422C61.7915 54.7298 59.4621 54.7198 57.1327 54.7139C56.051 54.711 54.9693 54.7072 53.8876 54.7009C52.9444 54.6955 52.0011 54.6919 51.0579 54.6907C50.5588 54.69 50.0598 54.6884 49.5608 54.6844C49.0025 54.6799 48.4442 54.6798 47.8859 54.6801C47.7221 54.6781 47.5582 54.6762 47.3894 54.6741C45.9983 54.6809 44.6759 54.9972 43.7498 56.1094Z" fill="#797979"/>
<path d="M12.8346 38.5667C12.9895 38.5645 13.1444 38.5623 13.3041 38.56C14.3999 38.5594 15.4138 38.6478 16.3124 39.3272C17.2979 40.3356 17.3634 41.1776 17.3634 42.5742C18.9425 42.5742 20.5216 42.5742 22.1486 42.5742C22.1486 42.1682 22.1486 41.7621 22.1486 41.3438C22.3157 40.4265 22.7056 39.6771 23.4752 39.1264C24.4785 38.5157 25.4878 38.5803 26.6261 38.5752C26.7823 38.5724 26.9384 38.5696 27.0993 38.5667C28.2461 38.5614 29.1544 38.6803 30.121 39.3186C31.0703 40.312 31.1949 41.3853 31.172 42.711C31.2792 42.7166 31.3863 42.7222 31.4967 42.7281C32.8655 43.0584 33.9038 44.0104 34.6327 45.1885C35.3649 46.6555 35.3361 48.4607 35.4498 50.0676C35.4647 50.2724 35.4797 50.4773 35.4946 50.6821C35.5257 51.1094 35.5562 51.5367 35.5863 51.964C35.6167 52.3956 35.648 52.827 35.6801 53.2584C35.9852 57.3585 35.9852 57.3585 35.9908 59.2304C35.9914 59.348 35.9919 59.4656 35.9925 59.5867C35.9786 61.0598 35.4687 62.1556 34.4533 63.2188C33.2686 64.3222 32.0332 64.67 30.4455 64.6503C28.9582 64.592 27.8955 64.0737 26.797 63.0821C26.4282 62.6636 26.1035 62.2202 25.7802 61.7661C25.6022 61.5237 25.4242 61.2812 25.2461 61.0388C25.0091 60.7121 24.7729 60.3849 24.538 60.0568C24.3613 59.8106 24.1823 59.5664 24.0028 59.3223C23.9071 59.1884 23.8114 59.0544 23.7128 58.9164C23.1626 58.3459 22.5124 58.0071 21.7141 57.9527C21.5129 57.9492 21.3116 57.9486 21.1104 57.9508C20.9482 57.95 20.9482 57.95 20.7827 57.9492C20.5557 57.9489 20.3286 57.9499 20.1016 57.9522C19.7568 57.9551 19.4124 57.9522 19.0676 57.9487C18.8456 57.9491 18.6236 57.9498 18.4016 57.9508C18.3001 57.9497 18.1985 57.9486 18.0938 57.9475C17.2127 57.963 16.5017 58.2257 15.8526 58.8323C15.786 58.9221 15.7194 59.0119 15.6507 59.1044C15.5741 59.2053 15.4975 59.3063 15.4186 59.4103C15.3413 59.5166 15.2641 59.6229 15.1845 59.7324C15.1023 59.8418 15.0201 59.9512 14.9354 60.0639C14.6946 60.385 14.4567 60.708 14.2189 61.0313C14.0933 61.199 13.9675 61.3665 13.8413 61.5338C13.6412 61.7994 13.4418 62.0657 13.2437 62.3328C12.3977 63.4567 11.4141 64.3451 9.98061 64.586C8.17136 64.7672 6.66387 64.5848 5.21255 63.3982C4.23143 62.4545 3.56686 61.2774 3.51671 59.9012C3.51498 59.6741 3.51538 59.4469 3.51745 59.2198C3.51843 59.0278 3.51843 59.0278 3.51944 58.8319C3.54548 56.8873 3.70903 54.947 3.85578 53.0086C3.8876 52.5839 3.91809 52.1591 3.94858 51.7343C3.97856 51.3183 4.00922 50.9024 4.04009 50.4865C4.05454 50.2912 4.06882 50.0958 4.08292 49.9005C4.42215 45.231 4.42215 45.231 6.15249 43.668C6.89163 43.1217 7.55073 42.7512 8.47671 42.711C8.47036 42.5855 8.46402 42.46 8.45748 42.3307C8.40221 40.4516 8.40221 40.4516 9.02358 39.7032C10.1609 38.6029 11.3184 38.5624 12.8346 38.5667ZM10.8009 41.3438C10.7558 41.7498 10.7107 42.1559 10.6642 42.5742C12.108 42.5742 13.5517 42.5742 15.0392 42.5742C15.1235 41.6746 15.1235 41.6746 14.7919 41.2199C14.1509 40.7993 13.593 40.8438 12.8432 40.8653C12.7074 40.8649 12.5716 40.8646 12.4317 40.8642C11.516 40.8444 11.516 40.8444 10.8009 41.3438ZM24.7201 41.2199C24.3885 41.6746 24.3885 41.6746 24.4728 42.5742C25.9166 42.5742 27.3603 42.5742 28.8478 42.5742C28.8389 41.4395 28.8389 41.4395 28.4721 41.0658C27.8889 40.8154 27.2943 40.8636 26.6688 40.8653C26.5336 40.8614 26.3983 40.8575 26.259 40.8535C25.6222 40.8518 25.2617 40.8645 24.7201 41.2199ZM7.34023 45.9153C7.2759 45.9913 7.21158 46.0672 7.1453 46.1455C6.74299 46.7446 6.65332 47.3214 6.59736 48.0323C6.58974 48.1254 6.58213 48.2184 6.57428 48.3143C6.54937 48.6226 6.52605 48.9309 6.50283 49.2393C6.48575 49.457 6.4686 49.6747 6.45139 49.8924C6.41504 50.3555 6.37949 50.8186 6.34448 51.2817C6.29816 51.8937 6.24991 52.5055 6.20116 53.1173C6.16208 53.6104 6.124 54.1035 6.08619 54.5967C6.06805 54.8319 6.04963 55.0671 6.03089 55.3023C5.96992 56.0722 5.91836 56.842 5.87905 57.6133C5.87295 57.7289 5.86684 57.8445 5.86055 57.9635C5.84428 58.3123 5.83377 58.6608 5.82511 59.0099C5.82006 59.1144 5.81501 59.2188 5.8098 59.3265C5.79805 60.2591 6.17299 60.8729 6.78804 61.5545C7.38815 62.1582 8.04617 62.3589 8.88686 62.3985C10.0562 62.295 10.7691 61.6427 11.5004 60.7965C11.9242 60.2829 12.3097 59.7433 12.6979 59.2027C15.0395 56.0007 15.0395 56.0007 16.9533 55.6992C17.3781 55.6751 17.8026 55.6703 18.2281 55.6667C18.3513 55.6656 18.4746 55.6645 18.6015 55.6633C18.862 55.6614 19.1226 55.66 19.3831 55.6589C19.6476 55.6573 19.9121 55.6545 20.1765 55.6505C22.9807 55.6076 22.9807 55.6076 24.0626 56.2461C24.2036 56.3223 24.3446 56.3984 24.4899 56.4768C25.4796 57.2729 26.1907 58.3034 26.9337 59.3223C28.2526 61.2881 28.2526 61.2881 30.2577 62.3728C31.2478 62.4232 31.8924 62.2631 32.6588 61.6123C33.2527 61.0717 33.5972 60.5422 33.6847 59.7314C33.6856 59.5413 33.6836 59.3511 33.6794 59.161C33.6782 59.0517 33.6769 58.9424 33.6756 58.8298C33.6367 56.9287 33.468 55.0291 33.324 53.1336C33.2914 52.7012 33.2597 52.2687 33.228 51.8361C33.1897 51.3148 33.151 50.7935 33.1123 50.2722C33.1014 50.1263 33.1014 50.1263 33.0904 49.9775C33.0054 47.4211 33.0054 47.4211 31.6334 45.3855C31.0691 44.9169 30.6059 44.881 29.8833 44.8783C29.7938 44.8778 29.7042 44.8773 29.6119 44.8768C29.3112 44.8753 29.0106 44.8748 28.7099 44.8743C28.4945 44.8734 28.2791 44.8725 28.0638 44.8715C27.356 44.8687 26.6482 44.8672 25.9404 44.8659C25.6967 44.8653 25.453 44.8648 25.2093 44.8642C24.0643 44.8616 22.9193 44.8596 21.7743 44.8585C20.4528 44.8572 19.1314 44.8536 17.81 44.848C16.7885 44.8439 15.7669 44.8419 14.7454 44.8414C14.1353 44.8411 13.5253 44.8399 12.9153 44.8365C12.3412 44.8333 11.7671 44.8327 11.193 44.8341C10.9826 44.8342 10.7722 44.8333 10.5619 44.8314C9.2502 44.8204 8.23132 44.8284 7.34023 45.9153Z" fill="#797979"/>
<path d="M34.8124 7.6383C35.0563 7.63752 35.0563 7.63752 35.305 7.63672C35.6471 7.63635 35.9892 7.63734 36.3312 7.63964C36.853 7.64257 37.3746 7.63966 37.8963 7.63617C38.2299 7.63653 38.5634 7.63723 38.8969 7.6383C39.0519 7.6372 39.2068 7.63609 39.3665 7.63495C40.4358 7.64753 41.1791 7.80218 42.0056 8.52644C42.0793 8.61544 42.153 8.70444 42.2289 8.79614C42.3047 8.88479 42.3804 8.97344 42.4585 9.06477C43.3061 10.295 42.9296 11.2275 42.9296 12.9062C46.6292 12.9062 50.3288 12.9062 54.1405 12.9062C54.1405 11.9588 54.1405 11.0113 54.1405 10.0352C54.7592 8.79776 54.7592 8.79776 55.2257 8.41162C55.3143 8.33584 55.403 8.26005 55.4943 8.18197C56.0499 7.7992 56.5434 7.67665 57.2131 7.67121C57.4328 7.6686 57.4328 7.6686 57.6571 7.66593C57.8927 7.66547 57.8927 7.66547 58.1331 7.66501C58.3776 7.66364 58.3776 7.66364 58.6271 7.66225C58.9719 7.66086 59.3166 7.66022 59.6614 7.66027C60.1865 7.65967 60.7114 7.65471 61.2365 7.64952C61.5721 7.64872 61.9076 7.64817 62.2432 7.64792C62.3992 7.64595 62.5552 7.64399 62.7159 7.64196C63.7525 7.64784 64.6424 7.77515 65.4565 8.46167C66.3185 9.37177 66.5075 10.482 66.4983 11.695C66.4993 11.8723 66.4993 11.8723 66.5004 12.0532C66.5022 12.4401 66.501 12.827 66.4997 13.2139C66.4999 13.485 66.5003 13.7562 66.5008 14.0274C66.5014 14.5941 66.5006 15.1609 66.4987 15.7277C66.4963 16.4517 66.4977 17.1757 66.5001 17.8997C66.5016 18.4592 66.5011 19.0187 66.5001 19.5781C66.4998 19.845 66.5001 20.1119 66.5011 20.3787C66.5021 20.7526 66.5005 21.1264 66.4983 21.5003C66.4991 21.609 66.4999 21.7177 66.5008 21.8297C66.4885 22.9247 66.2231 23.9238 65.4566 24.7337C64.5187 25.524 63.4648 25.5641 62.2875 25.5522C62.128 25.5524 61.9685 25.5526 61.8041 25.5528C61.4685 25.5526 61.1328 25.551 60.7972 25.5482C60.2854 25.5442 59.7737 25.5453 59.2618 25.5471C58.9346 25.5463 58.6073 25.5451 58.28 25.5437C58.052 25.5443 58.052 25.5443 57.8194 25.5449C56.7613 25.5321 55.7667 25.4376 54.9864 24.6384C54.9122 24.566 54.838 24.4936 54.7616 24.4189C53.8278 23.0832 54.1405 21.9686 54.1405 20.2891C50.4409 20.2891 46.7413 20.2891 42.9296 20.2891C42.9296 21.2365 42.9296 22.184 42.9296 23.1602C42.3094 24.4006 42.3094 24.4006 41.8529 24.7837C41.7658 24.8595 41.6788 24.9353 41.5891 25.0133C40.7295 25.5792 39.8141 25.5304 38.8216 25.5351C38.5824 25.537 38.5824 25.537 38.3384 25.5388C38.0014 25.5408 37.6645 25.542 37.3276 25.5426C36.815 25.5442 36.3027 25.5509 35.7903 25.5578C35.462 25.5591 35.1337 25.5601 34.8055 25.5607C34.6536 25.5634 34.5018 25.5661 34.3453 25.5688C33.3357 25.5631 32.5566 25.3839 31.7186 24.8008C30.7777 23.8371 30.5833 22.8348 30.5873 21.5313C30.5866 21.4132 30.5859 21.295 30.5852 21.1732C30.5833 20.7849 30.5834 20.3965 30.5837 20.0081C30.5832 19.7366 30.5826 19.465 30.582 19.1935C30.581 18.6251 30.581 18.0567 30.5817 17.4883C30.5825 16.7621 30.5802 16.036 30.577 15.3098C30.575 14.7491 30.5749 14.1885 30.5753 13.6278C30.5752 13.3602 30.5745 13.0926 30.5731 12.8249C30.5714 12.4497 30.5724 12.0746 30.574 11.6993C30.5729 11.5902 30.5719 11.4811 30.5708 11.3686C30.5809 10.2721 30.8458 9.27252 31.6135 8.46164C32.5587 7.6649 33.6264 7.62982 34.8124 7.6383ZM32.9491 10.7187C32.8961 11.1183 32.8742 11.4659 32.8783 11.8648C32.8774 11.9785 32.8764 12.0922 32.8754 12.2093C32.873 12.5841 32.8746 12.9587 32.8765 13.3335C32.8761 13.5945 32.8756 13.8555 32.8749 14.1165C32.8741 14.6631 32.8752 15.2096 32.8778 15.7562C32.8809 16.4565 32.8791 17.1565 32.8758 17.8567C32.8739 18.3956 32.8745 18.9344 32.8759 19.4732C32.8763 19.7314 32.8758 19.9895 32.8746 20.2477C32.8732 20.6087 32.8753 20.9695 32.8783 21.3305C32.8772 21.4369 32.8761 21.5433 32.875 21.6529C32.8827 22.1463 32.9365 22.4549 33.186 22.8846C33.5429 23.2019 33.6815 23.2459 34.1518 23.2464C34.3462 23.249 34.3462 23.249 34.5445 23.2516C34.6835 23.2498 34.8225 23.248 34.9657 23.2461C35.1811 23.2466 35.1811 23.2466 35.4008 23.2471C35.7042 23.247 36.0076 23.2452 36.311 23.2418C36.7755 23.2371 37.2398 23.2389 37.7043 23.2416C37.9991 23.2407 38.2939 23.2393 38.5887 23.2376C38.7972 23.2386 38.7972 23.2386 39.01 23.2396C39.1396 23.2375 39.2691 23.2353 39.4026 23.2331C39.5732 23.2318 39.5732 23.2318 39.7472 23.2305C40.1951 23.1293 40.3432 22.9909 40.6053 22.6133C40.6593 22.2103 40.6802 21.8583 40.6761 21.4554C40.6771 21.3389 40.678 21.2223 40.679 21.1023C40.6814 20.7172 40.6798 20.3323 40.678 19.9473C40.6783 19.6796 40.6789 19.412 40.6796 19.1443C40.6804 18.5834 40.6792 18.0226 40.6766 17.4618C40.6735 16.7427 40.6753 16.0237 40.6786 15.3047C40.6806 14.752 40.6799 14.1993 40.6785 13.6467C40.6782 13.3815 40.6786 13.1164 40.6799 12.8513C40.6813 12.4807 40.6791 12.1104 40.6761 11.7399C40.6772 11.6302 40.6783 11.5205 40.6795 11.4075C40.6722 10.9314 40.6432 10.6365 40.3685 10.2408C40.0123 10.0045 39.8269 9.96538 39.4026 9.96222C39.2731 9.96006 39.1435 9.95789 39.01 9.95566C38.871 9.95634 38.732 9.95702 38.5887 9.95772C38.4451 9.95687 38.3016 9.95602 38.1536 9.95515C37.8502 9.95418 37.5468 9.95461 37.2434 9.95635C36.7789 9.95824 36.3146 9.95358 35.8501 9.94837C35.5553 9.94824 35.2605 9.94849 34.9657 9.94917C34.7572 9.94645 34.7572 9.94645 34.5445 9.94368C34.3501 9.94625 34.3501 9.94625 34.1518 9.94887C34.0381 9.949 33.9244 9.94913 33.8072 9.94927C33.3293 10.0811 33.1954 10.2945 32.9491 10.7187ZM56.4647 10.582C56.4108 10.9851 56.3899 11.337 56.394 11.7399C56.393 11.8564 56.392 11.973 56.391 12.093C56.3886 12.4781 56.3902 12.863 56.3921 13.248C56.3917 13.5157 56.3912 13.7833 56.3905 14.051C56.3897 14.6119 56.3909 15.1727 56.3934 15.7335C56.3965 16.4526 56.3947 17.1716 56.3915 17.8907C56.3895 18.4433 56.3901 18.996 56.3915 19.5486C56.3919 19.8138 56.3915 20.0789 56.3902 20.344C56.3888 20.7146 56.3909 21.0849 56.394 21.4554C56.3928 21.5651 56.3917 21.6748 56.3906 21.7878C56.3979 22.2639 56.4269 22.5588 56.7016 22.9545C57.0577 23.1908 57.2431 23.2299 57.6674 23.2331C57.797 23.2353 57.9266 23.2374 58.0601 23.2396C58.1991 23.239 58.3381 23.2383 58.4813 23.2376C58.6249 23.2384 58.7685 23.2393 58.9164 23.2402C59.2198 23.2411 59.5232 23.2407 59.8266 23.239C60.2912 23.2371 60.7554 23.2417 61.22 23.2469C61.5148 23.2471 61.8096 23.2468 62.1044 23.2461C62.2434 23.2479 62.3824 23.2498 62.5256 23.2516C62.6552 23.2499 62.7848 23.2482 62.9183 23.2464C63.032 23.2463 63.1457 23.2462 63.2629 23.246C63.7407 23.1142 63.8747 22.9008 64.121 22.4766C64.1739 22.077 64.1959 21.7294 64.1917 21.3305C64.1927 21.2168 64.1936 21.1031 64.1946 20.986C64.197 20.6112 64.1954 20.2366 64.1936 19.8618C64.194 19.6008 64.1945 19.3398 64.1952 19.0788C64.196 18.5322 64.1948 17.9857 64.1923 17.4391C64.1891 16.7389 64.1909 16.0388 64.1942 15.3386C64.1962 14.7997 64.1956 14.2609 64.1941 13.7221C64.1938 13.4639 64.1942 13.2058 64.1955 12.9476C64.1969 12.5866 64.1948 12.2258 64.1917 11.8648C64.1928 11.7584 64.1939 11.652 64.1951 11.5424C64.1874 11.049 64.1335 10.7404 63.8841 10.3107C63.5272 9.99344 63.3885 9.94941 62.9183 9.94887C62.7239 9.9463 62.7239 9.9463 62.5256 9.94368C62.3171 9.9464 62.3171 9.9464 62.1044 9.94917C61.9608 9.94884 61.8172 9.94851 61.6692 9.94817C61.3658 9.94831 61.0624 9.95014 60.7591 9.95354C60.2945 9.95823 59.8303 9.95637 59.3657 9.95371C59.0709 9.95465 58.7761 9.95598 58.4813 9.95772C58.2728 9.9567 58.2728 9.9567 58.0601 9.95566C57.9305 9.95783 57.8009 9.95999 57.6674 9.96222C57.5537 9.96307 57.44 9.96392 57.3228 9.96479C56.875 10.066 56.7269 10.2044 56.4647 10.582ZM42.9296 15.2305C42.9296 16.1328 42.9296 17.0352 42.9296 17.9648C46.6292 17.9648 50.3288 17.9648 54.1405 17.9648C54.1405 17.0625 54.1405 16.1602 54.1405 15.2305C50.4409 15.2305 46.7413 15.2305 42.9296 15.2305Z" fill="#797979"/>
<path d="M14.4923 8.53126C15.0718 8.97064 15.5788 9.4341 15.9962 10.0352C15.9962 10.1254 15.9962 10.2156 15.9962 10.3086C16.0864 10.2184 16.1767 10.1281 16.2696 10.0352C16.3329 9.97278 16.3962 9.91039 16.4613 9.84611C16.6148 9.69077 16.7644 9.53157 16.911 9.36973C18.1145 8.07835 19.697 7.19843 21.4804 7.10479C21.7173 7.10158 21.9543 7.10146 22.1913 7.10426C22.3165 7.10539 22.4416 7.10653 22.5706 7.1077C24.2424 7.14913 25.605 7.63851 26.9337 8.66798C27.3008 9.40224 27.0662 10.2925 26.8568 11.0435C26.2694 12.8015 25.1218 14.3705 23.4607 15.2421C21.3765 16.2742 19.5773 16.3539 17.3634 15.7774C17.3634 17.0406 17.3634 18.3039 17.3634 19.6055C17.9377 19.6007 18.5121 19.596 19.1039 19.5911C19.5627 19.5884 20.0215 19.5862 20.4803 19.5843C20.9642 19.5821 21.448 19.5792 21.9319 19.5745C22.4874 19.5692 23.0429 19.5672 23.5985 19.5654C23.7714 19.5633 23.9443 19.5612 24.1225 19.559C24.2839 19.559 24.4454 19.5589 24.6117 19.5589C24.7535 19.558 24.8953 19.5571 25.0413 19.5562C25.4923 19.6134 25.7487 19.7484 26.1134 20.0156C26.6249 21.0386 26.0846 22.5583 25.8757 23.6301C25.8368 23.8339 25.7979 24.0376 25.7591 24.2413C25.6779 24.6666 25.5959 25.0918 25.5133 25.5168C25.408 26.0585 25.3046 26.6005 25.2016 27.1426C25.1217 27.5629 25.0409 27.983 24.9599 28.4031C24.9214 28.6027 24.8832 28.8024 24.8453 29.0022C24.509 30.7662 24.2325 32.1815 22.8321 33.4141C21.8709 34.0364 21.0106 34.2498 19.872 34.2564C19.7834 34.2571 19.6948 34.2578 19.6036 34.2585C19.312 34.2605 19.0205 34.2614 18.729 34.2622C18.5786 34.2627 18.5786 34.2627 18.4252 34.2633C17.8944 34.2654 17.3636 34.2666 16.8328 34.2672C16.2878 34.268 15.7428 34.2713 15.1978 34.2752C14.7759 34.2777 14.354 34.2784 13.9321 34.2786C13.7313 34.279 13.5306 34.2801 13.3299 34.2819C11.6785 34.2957 10.2677 34.1865 9.02353 33.0039C7.86094 31.7543 7.6658 30.1463 7.36421 28.5248C7.325 28.317 7.28574 28.1092 7.24643 27.9014C7.16465 27.4682 7.08348 27.0349 7.00276 26.6015C6.8995 26.0473 6.79481 25.4935 6.68968 24.9397C6.60855 24.5116 6.52814 24.0833 6.44796 23.655C6.40963 23.4507 6.3711 23.2465 6.33234 23.0423C6.27828 22.7569 6.2252 22.4713 6.17236 22.1857C6.14203 22.0236 6.11169 21.8616 6.08043 21.6946C5.91841 20.5717 5.91841 20.5717 6.27206 20.0413C6.60108 19.7026 6.71225 19.6114 7.18033 19.589C7.32545 19.5893 7.47057 19.5896 7.62009 19.59C7.86641 19.59 7.86641 19.59 8.1177 19.59C8.38474 19.591 8.38474 19.591 8.65717 19.5921C8.84069 19.5924 9.02422 19.5926 9.20774 19.5927C9.69098 19.5932 10.1742 19.5946 10.6575 19.5961C11.1505 19.5975 11.6435 19.5981 12.1366 19.5988C13.1041 19.6002 14.0716 19.6029 15.0392 19.6055C15.0392 18.3422 15.0392 17.0789 15.0392 15.7774C14.7233 15.845 14.4075 15.9127 14.0821 15.9824C12.0411 16.3935 10.1216 16.0888 8.33994 14.957C6.62019 13.6691 5.49284 11.9137 5.17831 9.77028C5.15708 9.26512 5.18938 9.08997 5.42612 8.62526C7.83027 6.30841 11.9792 6.77604 14.4923 8.53126ZM7.65634 10.0352C8.18698 11.6566 9.0303 12.715 10.5531 13.4959C11.7028 13.9704 13.046 14.0017 14.2188 13.5899C14.4027 13.5019 14.5855 13.4116 14.7657 13.3164C14.7154 12.1341 14.0628 11.336 13.2276 10.5393C11.6276 9.19386 9.47327 8.98326 7.65634 10.0352ZM18.7258 10.84C18.0609 11.5585 17.5001 12.316 17.5001 13.3164C19.2826 13.9251 20.375 14.0532 22.1485 13.3164C23.452 12.5502 24.2274 11.4831 24.6095 10.0352C22.8235 8.72547 20.2341 9.44168 18.7258 10.84ZM8.61337 21.9297C8.77952 23.0927 8.94787 24.2447 9.16345 25.3979C9.18908 25.5352 9.21471 25.6725 9.24111 25.814C9.29486 26.1005 9.34886 26.387 9.40311 26.6735C9.45792 26.9644 9.51199 27.2555 9.56533 27.5468C9.64339 27.973 9.72361 28.3987 9.80432 28.8244C9.82756 28.9533 9.85079 29.0822 9.87473 29.215C10.1207 30.5064 10.1207 30.5064 10.8717 31.5497C11.748 32.0857 12.7885 31.9868 13.7798 31.978C13.9756 31.978 14.1713 31.9782 14.367 31.9786C14.7754 31.9788 15.1838 31.9771 15.5922 31.974C16.1141 31.9701 16.6359 31.9705 17.1579 31.9722C17.5614 31.9731 17.9648 31.9721 18.3683 31.9704C18.5607 31.9698 18.7531 31.9697 18.9455 31.9703C19.2147 31.9707 19.4839 31.9681 19.7531 31.9654C19.9058 31.9647 20.0586 31.9639 20.216 31.9632C20.8421 31.8857 21.2943 31.6511 21.764 31.2351C22.3868 30.1829 22.5088 28.7961 22.7312 27.6041C22.7579 27.4623 22.7846 27.3206 22.8122 27.1746C22.8679 26.8784 22.9234 26.5821 22.9786 26.2858C23.0633 25.8324 23.1491 25.3792 23.2351 24.926C23.2893 24.6367 23.3436 24.3473 23.3977 24.0579C23.4361 23.8556 23.4361 23.8556 23.4753 23.6492C23.4987 23.5232 23.522 23.3971 23.546 23.2673C23.5666 23.1572 23.5872 23.047 23.6085 22.9336C23.6679 22.5543 23.6679 22.5543 23.6524 21.9297C18.6895 21.9297 13.7267 21.9297 8.61337 21.9297Z" fill="#797979"/>
<path d="M29.1237 47.2317C29.9897 47.8034 30.4874 48.5521 30.7617 49.5469C30.8953 50.8131 30.8596 51.9222 30.0781 52.9648C29.3399 53.7944 28.5754 54.2625 27.4698 54.3748C26.2281 54.421 25.3576 54.1722 24.3701 53.4263C23.6713 52.7698 23.2972 52.0502 23.1813 51.0967C23.1433 49.8325 23.2863 48.8965 24.1223 47.9319C24.2379 47.8332 24.3535 47.7345 24.4726 47.6328C24.5713 47.5369 24.67 47.4411 24.7717 47.3423C26.1173 46.4453 27.7182 46.4896 29.1237 47.2317ZM25.8398 49.5469C25.5036 50.0512 25.4548 50.4654 25.5664 51.0508C25.8049 51.464 26.0904 51.7913 26.5234 52.0078C27.1467 52.0802 27.1467 52.0802 27.7208 51.8647C28.0186 51.6201 28.2638 51.3982 28.4375 51.0508C28.5082 50.2644 28.5082 50.2644 28.1982 49.564C27.807 49.1945 27.5495 49.0325 27.019 48.9487C26.5208 49.0199 26.2333 49.2408 25.8398 49.5469Z" fill="#797979"/>
<path d="M14.6315 47.2317C15.4975 47.8034 15.9953 48.5521 16.2695 49.5469C16.4032 50.8131 16.3674 51.9222 15.5859 52.9648C14.8477 53.7944 14.0832 54.2625 12.9776 54.3748C11.7359 54.421 10.8654 54.1722 9.8779 53.4263C9.17907 52.7698 8.80498 52.0502 8.68909 51.0967C8.65108 49.8325 8.79409 48.8965 9.6301 47.9319C9.74571 47.8332 9.86132 47.7345 9.98044 47.6328C10.0791 47.5369 10.1778 47.4411 10.2795 47.3423C11.6251 46.4453 13.226 46.4896 14.6315 47.2317ZM11.3476 49.5469C11.0114 50.0512 10.9626 50.4654 11.0742 51.0508C11.3127 51.464 11.5982 51.7913 12.0312 52.0078C12.6545 52.0802 12.6545 52.0802 13.2286 51.8647C13.5264 51.6201 13.7716 51.3982 13.9453 51.0508C14.016 50.2644 14.016 50.2644 13.706 49.564C13.3149 49.1945 13.0573 49.0325 12.5268 48.9487C12.0286 49.0199 11.7411 49.2408 11.3476 49.5469Z" fill="#797979"/>
</svg>
