<svg width="24" height="25" viewBox="0 0 24 25" fill="none" xmlns="http://www.w3.org/2000/svg">
<g clip-path="url(#clip0_718_4668)">
<path d="M22.2283 0.0371094H1.77167C1.30179 0.0371094 0.851161 0.223767 0.518909 0.556019C0.186657 0.888271 0 1.3389 0 1.80878V22.2654C0 22.7353 0.186657 23.1859 0.518909 23.5182C0.851161 23.8505 1.30179 24.0371 1.77167 24.0371H22.2283C22.6982 24.0371 23.1488 23.8505 23.4811 23.5182C23.8133 23.1859 24 22.7353 24 22.2654V1.80878C24 1.3389 23.8133 0.888271 23.4811 0.556019C23.1488 0.223767 22.6982 0.0371094 22.2283 0.0371094ZM7.15333 20.4821H3.545V9.02044H7.15333V20.4821ZM5.34667 7.43211C4.93736 7.4298 4.53792 7.3063 4.19873 7.0772C3.85955 6.84809 3.59584 6.52364 3.44088 6.1448C3.28591 5.76596 3.24665 5.3497 3.32803 4.94856C3.40941 4.54743 3.6078 4.17939 3.89816 3.89089C4.18851 3.6024 4.55782 3.40638 4.95947 3.32757C5.36112 3.24876 5.77711 3.2907 6.15495 3.44809C6.53279 3.60549 6.85554 3.87128 7.08247 4.21192C7.30939 4.55257 7.43032 4.9528 7.43 5.36211C7.43386 5.63614 7.38251 5.90815 7.27901 6.16191C7.17551 6.41568 7.02198 6.64601 6.82757 6.83918C6.63316 7.03234 6.40185 7.18439 6.14742 7.28626C5.893 7.38813 5.62067 7.43773 5.34667 7.43211ZM20.4533 20.4921H16.8467V14.2304C16.8467 12.3838 16.0617 11.8138 15.0483 11.8138C13.9783 11.8138 12.9283 12.6204 12.9283 14.2771V20.4921H9.32V9.02878H12.79V10.6171H12.8367C13.185 9.91211 14.405 8.70711 16.2667 8.70711C18.28 8.70711 20.455 9.90211 20.455 13.4021L20.4533 20.4921Z" fill="white"/>
</g>
<defs>
<clipPath id="clip0_718_4668">
<rect width="24" height="24" fill="white" transform="translate(0 0.0371094)"/>
</clipPath>
</defs>
</svg>
