<svg width="15" height="21" viewBox="0 0 15 21" fill="none" xmlns="http://www.w3.org/2000/svg">
<path d="M7.76514 20.4286C7.5318 20.4286 7.3318 20.3619 7.16514 20.2286C6.99847 20.0953 6.87347 19.9203 6.79014 19.7036C6.47347 18.7703 6.07347 17.8953 5.59014 17.0786C5.12347 16.2619 4.46514 15.3036 3.61514 14.2036C2.76514 13.1036 2.07347 12.0536 1.54014 11.0536C1.02347 10.0536 0.765137 8.84525 0.765137 7.42859C0.765137 5.47859 1.44014 3.82859 2.79014 2.47859C4.1568 1.11192 5.81514 0.428589 7.76514 0.428589C9.71514 0.428589 11.3651 1.11192 12.7151 2.47859C14.0818 3.82859 14.7651 5.47859 14.7651 7.42859C14.7651 8.94526 14.4735 10.2119 13.8901 11.2286C13.3235 12.2286 12.6651 13.2203 11.9151 14.2036C11.0151 15.4036 10.3318 16.4036 9.86514 17.2036C9.41514 17.9869 9.04014 18.8203 8.74014 19.7036C8.6568 19.9369 8.52347 20.1203 8.34014 20.2536C8.17347 20.3703 7.9818 20.4286 7.76514 20.4286ZM7.76514 16.8536C8.04847 16.2869 8.36514 15.7286 8.71514 15.1786C9.0818 14.6286 9.61514 13.8953 10.3151 12.9786C11.0318 12.0453 11.6151 11.1869 12.0651 10.4036C12.5318 9.60359 12.7651 8.61192 12.7651 7.42859C12.7651 6.04525 12.2735 4.87025 11.2901 3.90359C10.3235 2.92026 9.14847 2.42859 7.76514 2.42859C6.3818 2.42859 5.19847 2.92026 4.21514 3.90359C3.24847 4.87025 2.76514 6.04525 2.76514 7.42859C2.76514 8.61192 2.99014 9.60359 3.44014 10.4036C3.9068 11.1869 4.49847 12.0453 5.21514 12.9786C5.91514 13.8953 6.44014 14.6286 6.79014 15.1786C7.1568 15.7286 7.4818 16.2869 7.76514 16.8536ZM7.76514 9.92859C8.46514 9.92859 9.0568 9.68692 9.54014 9.20359C10.0235 8.72026 10.2651 8.12859 10.2651 7.42859C10.2651 6.72859 10.0235 6.13692 9.54014 5.65359C9.0568 5.17026 8.46514 4.92859 7.76514 4.92859C7.06514 4.92859 6.47347 5.17026 5.99014 5.65359C5.5068 6.13692 5.26514 6.72859 5.26514 7.42859C5.26514 8.12859 5.5068 8.72026 5.99014 9.20359C6.47347 9.68692 7.06514 9.92859 7.76514 9.92859Z" fill="#474747"/>
</svg>
