<svg width="70" height="71" viewBox="0 0 70 71" fill="none" xmlns="http://www.w3.org/2000/svg">
<g clip-path="url(#clip0_811_163)">
<path d="M22.4023 0.808878C23.4511 1.04532 24.3231 2.41205 25.0095 3.19113C25.5866 3.84475 26.1807 4.48234 26.776 5.11927C27.2242 5.60007 27.6652 6.08462 28.0939 6.58294C29.8085 8.56723 31.4753 10.264 34.1987 10.5399C36.4871 10.6696 38.2248 10.1625 39.9535 8.64409C40.8912 7.77007 41.7451 6.82453 42.588 5.86017C43.0783 5.30638 43.5866 4.76967 44.0936 4.23126C44.9055 3.36566 45.7068 2.49169 46.4916 1.60134C47.1238 0.88957 47.1238 0.88957 47.8346 0.832245C48.2429 0.839654 48.3775 0.861463 48.7318 1.08859C49.0164 1.53245 49.073 1.85285 49.0822 2.37888C48.8051 2.94004 48.4267 3.34107 47.9854 3.78014C47.9173 3.84825 47.8493 3.91636 47.7791 3.98653C47.5556 4.20984 47.3312 4.43217 47.1067 4.6545C46.9509 4.80979 46.7952 4.96514 46.6395 5.12055C46.2308 5.5282 45.8213 5.93502 45.4116 6.34167C44.9932 6.75726 44.5756 7.17364 44.1579 7.58994C43.3392 8.40577 42.5195 9.22072 41.6994 10.0351C41.8193 10.0355 41.9392 10.0358 42.0628 10.0361C44.9841 10.0442 47.9054 10.0545 50.8267 10.0674C52.2394 10.0735 53.6522 10.0789 55.0649 10.0825C56.2966 10.0856 57.5282 10.0902 58.7599 10.0965C59.4117 10.0997 60.0636 10.1023 60.7155 10.1032C61.3297 10.104 61.944 10.1067 62.5583 10.1109C62.783 10.1121 63.0077 10.1126 63.2325 10.1124C65.2556 10.1109 66.891 10.4313 68.4535 11.8125C69.3116 12.7174 70.016 14.184 70.0189 15.4277C70.0196 15.5832 70.0203 15.7387 70.021 15.899C70.0211 16.1564 70.0211 16.1564 70.0212 16.4191C70.0217 16.6027 70.0224 16.7863 70.023 16.9699C70.0247 17.4755 70.0254 17.9811 70.0261 18.4868C70.0269 19.0317 70.0285 19.5767 70.0299 20.1216C70.0333 21.4385 70.0353 22.7553 70.037 24.0722C70.0375 24.4442 70.0381 24.8162 70.0386 25.1882C70.0421 27.4986 70.0451 29.809 70.0468 32.1195C70.0472 32.6547 70.0476 33.19 70.048 33.7253C70.0481 33.8583 70.0482 33.9914 70.0483 34.1284C70.0501 36.2823 70.0546 38.4361 70.0603 40.59C70.0661 42.8017 70.0693 45.0135 70.07 47.2253C70.0705 48.4669 70.0721 49.7085 70.0766 50.9501C70.0804 52.0079 70.0819 53.0656 70.0804 54.1234C70.0797 54.6627 70.0801 55.202 70.0835 55.7413C70.0866 56.236 70.0864 56.7306 70.0839 57.2253C70.0833 57.4871 70.0861 57.7489 70.089 58.0106C70.0732 59.7508 69.4424 61.1288 68.2538 62.3803C67.3084 63.2794 66.0576 63.9203 64.7358 63.9188C64.6131 63.9189 64.4904 63.9191 64.364 63.9193C64.2304 63.9188 64.0969 63.9184 63.9593 63.9178C63.8179 63.9179 63.6764 63.9179 63.5307 63.9179C63.0632 63.9178 62.5957 63.9167 62.1281 63.9157C61.804 63.9154 61.4799 63.9152 61.1557 63.9151C60.3025 63.9146 59.4493 63.9132 58.5961 63.9117C57.7255 63.9103 56.8549 63.9097 55.9843 63.909C54.2761 63.9075 52.5678 63.9052 50.8595 63.9023C50.8982 64.0056 50.9368 64.1089 50.9766 64.2154C51.0267 64.3509 51.0768 64.4864 51.1284 64.626C51.1783 64.7603 51.2283 64.8946 51.2797 65.033C51.6443 66.1069 51.4556 67.1771 51.0304 68.2047C50.4471 69.3858 49.541 70.2525 48.3066 70.7483C47.7913 70.8918 47.3156 70.9139 46.7856 70.9115C46.6808 70.9122 46.576 70.9128 46.468 70.9134C46.1182 70.9151 45.7685 70.9149 45.4187 70.9147C45.1673 70.9155 44.9159 70.9165 44.6646 70.9175C43.9827 70.9199 43.3008 70.9205 42.6189 70.9207C42.1926 70.9209 41.7662 70.9215 41.3399 70.9222C39.8519 70.9247 38.3639 70.9259 36.8759 70.9256C35.4901 70.9255 34.1043 70.9284 32.7185 70.9327C31.5277 70.9363 30.3368 70.9377 29.146 70.9376C28.4352 70.9375 27.7245 70.9383 27.0137 70.9412C26.345 70.9438 25.6763 70.9438 25.0076 70.9418C24.7628 70.9415 24.5179 70.9422 24.273 70.9439C21.9121 70.9588 21.9121 70.9588 20.9181 70.3281C20.809 70.2655 20.6999 70.203 20.5875 70.1385C19.5488 69.3749 18.8406 68.3212 18.5939 67.0469C18.4949 66.1561 18.5586 65.4661 18.8716 64.6254C18.9217 64.49 18.9719 64.3545 19.0235 64.215C19.0622 64.1118 19.1009 64.0086 19.1408 63.9023C18.9626 63.9035 18.7843 63.9047 18.6007 63.906C16.9172 63.9171 15.2336 63.9253 13.5501 63.9307C12.6846 63.9335 11.8192 63.9374 10.9538 63.9436C10.1178 63.9495 9.28192 63.9528 8.44595 63.9542C8.12779 63.9552 7.80964 63.9572 7.4915 63.9601C7.04419 63.9641 6.59699 63.9647 6.14966 63.9644C6.01956 63.9664 5.88945 63.9683 5.7554 63.9704C4.17078 63.9608 2.75526 63.3418 1.61408 62.2473C0.655394 61.2196 -0.0325462 60.0347 -0.0353969 58.596C-0.0363629 58.4397 -0.0373306 58.2833 -0.0383258 58.1222C-0.0379957 57.9518 -0.0376647 57.7814 -0.0373245 57.6057C-0.0379335 57.4218 -0.0386602 57.2379 -0.0394941 57.0539C-0.0414303 56.5492 -0.0416593 56.0445 -0.041599 55.5398C-0.0418246 54.9951 -0.0436124 54.4505 -0.045181 53.9058C-0.0483033 52.7151 -0.0493879 51.5245 -0.0500793 50.3338C-0.0505248 49.59 -0.0514163 48.8462 -0.0524033 48.1023C-0.0550782 46.0419 -0.0573214 43.9815 -0.0577188 41.921C-0.0577445 41.7892 -0.0577696 41.6574 -0.057796 41.5215C-0.0578461 41.2543 -0.0578968 40.9871 -0.0579462 40.7199C-0.0579712 40.5872 -0.0579956 40.4546 -0.0580213 40.3179C-0.058046 40.1851 -0.058071 40.0523 -0.0580964 39.9155C-0.0585805 37.7643 -0.0622734 35.6131 -0.0673861 33.462C-0.0725963 31.2521 -0.0752409 29.0422 -0.0752822 26.8322C-0.0753621 25.592 -0.0765178 24.3518 -0.0804768 23.1115C-0.083833 22.0553 -0.084821 20.999 -0.0827674 19.9428C-0.0817891 19.4043 -0.0818951 18.8658 -0.08501 18.3273C-0.0878395 17.8334 -0.0874571 17.3396 -0.0846178 16.8457C-0.0839193 16.5843 -0.0865584 16.323 -0.0893555 16.0616C-0.0725704 14.3225 0.558651 12.9446 1.74653 11.6939C2.88755 10.6088 4.20788 10.1581 5.76026 10.1502C5.85687 10.1495 5.95349 10.1489 6.05302 10.1482C6.37588 10.1461 6.69872 10.1449 7.02158 10.1438C7.25336 10.1425 7.48514 10.1411 7.71692 10.1397C8.34565 10.136 8.97438 10.1331 9.60312 10.1304C10.2604 10.1274 10.9176 10.1236 11.5749 10.12C12.8192 10.1132 14.0636 10.107 15.308 10.1011C16.7248 10.0944 18.1415 10.0868 19.5583 10.0793C22.4725 10.0637 25.3867 10.0491 28.3009 10.0351C28.2105 9.94678 28.12 9.85843 28.0268 9.7674C27.1733 8.93317 26.3223 8.09665 25.4737 7.25748C25.0374 6.82616 24.6002 6.39577 24.161 5.96741C23.737 5.55376 23.3153 5.13779 22.8952 4.72014C22.7347 4.56144 22.5734 4.40359 22.4112 4.24662C22.1837 4.02606 21.9594 3.80266 21.7355 3.57837C21.6071 3.45207 21.4787 3.32578 21.3464 3.19565C20.9653 2.66415 20.9424 2.34383 20.9181 1.69528C21.1466 0.971738 21.6671 0.782062 22.4023 0.808878ZM3.14469 13.8547C3.07137 13.9405 2.99806 14.0264 2.92252 14.1148C2.54098 14.7142 2.42695 15.3096 2.42592 16.0116C2.42504 16.1649 2.42416 16.3183 2.42325 16.4763C2.42367 16.6434 2.4241 16.8105 2.42453 16.9826C2.42391 17.1612 2.42329 17.3398 2.42266 17.5238C2.42098 18.0187 2.42102 18.5135 2.42134 19.0084C2.4214 19.5424 2.41989 20.0764 2.41859 20.6104C2.41632 21.6564 2.41557 22.7023 2.41542 23.7482C2.41529 24.5983 2.41472 25.4485 2.41386 26.2986C2.41145 28.7093 2.41019 31.1199 2.41039 33.5305C2.4104 33.6605 2.41042 33.7904 2.41043 33.9243C2.41044 34.0543 2.41045 34.1844 2.41046 34.3185C2.41057 36.4271 2.40795 38.5358 2.4041 40.6445C2.40017 42.8099 2.39828 44.9753 2.39852 47.1407C2.39861 48.3563 2.39786 49.5719 2.39492 50.7876C2.39243 51.8225 2.39183 52.8573 2.39369 53.8922C2.39458 54.4201 2.3946 54.948 2.39222 55.4759C2.38968 56.0485 2.39138 56.621 2.39349 57.1935C2.39208 57.36 2.39068 57.5265 2.38923 57.698C2.39811 58.7861 2.53947 59.5284 3.26699 60.3759C3.35352 60.4484 3.44005 60.5208 3.52921 60.5954C3.61469 60.6696 3.70016 60.7438 3.78823 60.8203C4.54459 61.3292 5.20393 61.5023 6.10791 61.4938C6.2097 61.4944 6.3115 61.4951 6.41639 61.4958C6.75696 61.4976 7.09745 61.4964 7.43802 61.4953C7.68488 61.496 7.93174 61.4968 8.17859 61.4978C8.85655 61.5001 9.5345 61.4998 10.2125 61.499C10.9438 61.4986 11.6751 61.5006 12.4064 61.5023C13.8391 61.5052 15.2717 61.5058 16.7043 61.5056C17.8688 61.5054 19.0332 61.5059 20.1977 61.5069C20.533 61.5072 20.8683 61.5075 21.2036 61.5078C21.454 61.508 21.454 61.508 21.7094 61.5082C24.8664 61.5108 28.0235 61.5106 31.1805 61.5097C34.0688 61.509 36.957 61.5118 39.8452 61.5163C42.8106 61.5209 45.776 61.523 48.7414 61.5224C50.4063 61.5221 52.0713 61.5228 53.7362 61.5262C55.1537 61.5291 56.5711 61.5296 57.9886 61.527C58.7117 61.5257 59.4349 61.5256 60.158 61.5284C60.8203 61.5309 61.4825 61.5303 62.1448 61.5272C62.3841 61.5266 62.6234 61.5272 62.8627 61.5291C64.3195 61.5396 65.4839 61.4557 66.642 60.4758C66.7125 60.3884 66.783 60.301 66.8556 60.2109C66.9289 60.1235 67.0023 60.0361 67.0778 59.946C67.4541 59.3816 67.5734 58.8905 67.5744 58.2165C67.5753 58.0635 67.5762 57.9105 67.5771 57.7529C67.5766 57.5855 67.5762 57.4181 67.5758 57.2456C67.5767 56.978 67.5767 56.978 67.5777 56.7051C67.5793 56.2102 67.5793 55.7153 67.579 55.2204C67.5789 54.6865 67.5804 54.1527 67.5817 53.6189C67.584 52.573 67.5847 51.5271 67.5849 50.4812C67.585 49.631 67.5856 48.7808 67.5865 47.9305C67.5889 45.5198 67.5901 43.109 67.5899 40.6983C67.5899 40.5683 67.5899 40.4384 67.5899 40.3045C67.5899 40.1093 67.5899 40.1093 67.5899 39.9101C67.5897 37.8015 67.5924 35.693 67.5962 33.5844C67.6001 31.4191 67.602 29.2539 67.6018 27.0886C67.6017 25.8731 67.6025 24.6575 67.6054 23.442C67.6079 22.4069 67.6085 21.3719 67.6066 20.3368C67.6057 19.8089 67.6057 19.281 67.6081 18.7531C67.6106 18.1803 67.6089 17.6075 67.6068 17.0347C67.6089 16.7855 67.6089 16.7855 67.6111 16.5312C67.6021 15.4318 67.4445 14.55 66.7333 13.6849C66.6035 13.5786 66.6035 13.5786 66.4711 13.4702C66.3856 13.3972 66.3002 13.3243 66.2121 13.2491C65.451 12.7486 64.7969 12.5718 63.8924 12.5804C63.7397 12.5794 63.7397 12.5794 63.5839 12.5784C63.2434 12.5766 62.9029 12.5777 62.5623 12.5789C62.3154 12.5782 62.0686 12.5773 61.8217 12.5763C61.1438 12.5741 60.4658 12.5744 59.7879 12.5752C59.0565 12.5755 58.3252 12.5735 57.5939 12.5719C56.1612 12.569 54.7286 12.5684 53.296 12.5686C52.1315 12.5688 50.9671 12.5683 49.8026 12.5673C49.4673 12.567 49.132 12.5667 48.7967 12.5664C48.5463 12.5662 48.5463 12.5662 48.2909 12.566C45.1339 12.5634 41.9769 12.5635 38.8198 12.5645C35.9316 12.5652 33.0433 12.5624 30.1551 12.5578C27.1897 12.5532 24.2243 12.5512 21.2589 12.5518C19.594 12.5521 17.929 12.5514 16.2641 12.548C14.8466 12.5451 13.4292 12.5446 12.0117 12.5472C11.2886 12.5484 10.5655 12.5486 9.84231 12.5458C9.18001 12.5432 8.51779 12.5438 7.85549 12.5469C7.6162 12.5475 7.37689 12.5469 7.1376 12.5451C5.62949 12.5342 4.17826 12.5912 3.14469 13.8547ZM21.5505 64.7824C21.1118 65.4742 21.0006 65.9352 21.1189 66.7446C21.2816 67.4218 21.6046 67.777 22.1721 68.1592C22.6974 68.4475 23.1361 68.4828 23.7384 68.4835C23.839 68.4843 23.9397 68.4852 24.0433 68.4861C24.3783 68.4882 24.7131 68.4865 25.048 68.4848C25.289 68.4855 25.5301 68.4865 25.7711 68.4877C26.4242 68.4902 27.0773 68.4892 27.7303 68.4875C28.4145 68.4861 29.0987 68.4874 29.7828 68.4883C30.9317 68.4893 32.0805 68.4879 33.2294 68.4853C34.5567 68.4824 35.884 68.4833 37.2113 68.4863C38.3519 68.4888 39.4924 68.4892 40.633 68.4877C41.3138 68.4869 41.9946 68.4868 42.6754 68.4886C43.3155 68.4902 43.9555 68.4891 44.5956 68.4859C44.8302 68.4852 45.0649 68.4854 45.2995 68.4866C45.6204 68.4881 45.9411 68.4862 46.2619 68.4835C46.4413 68.4833 46.6206 68.4831 46.8054 68.4829C47.5667 68.378 48.0713 68.0828 48.5866 67.4997C48.9094 66.8417 49.0703 66.2328 48.8547 65.5136C48.5308 64.8067 48.1179 64.3737 47.4131 64.0274C46.9405 63.8725 46.5406 63.8671 46.0431 63.8658C45.945 63.8651 45.8469 63.8645 45.7459 63.8639C45.418 63.8622 45.0902 63.8624 44.7623 63.8626C44.5269 63.8618 44.2915 63.8609 44.0561 63.8598C43.4171 63.8574 42.7782 63.8568 42.1392 63.8566C41.7398 63.8564 41.3404 63.8558 40.941 63.8551C39.5471 63.8526 38.1532 63.8514 36.7593 63.8517C35.4609 63.8518 34.1625 63.8489 32.8641 63.8446C31.7486 63.841 30.6331 63.8396 29.5176 63.8397C28.8517 63.8398 28.1858 63.839 27.5199 63.8361C26.8934 63.8335 26.2669 63.8335 25.6404 63.8355C25.4109 63.8357 25.1814 63.8351 24.9519 63.8335C23.0861 63.8007 23.0861 63.8007 21.5505 64.7824Z" fill="#797979"/>
<path d="M8.59313 14.7335C8.83015 14.7327 9.06716 14.7316 9.30418 14.7303C9.95432 14.7274 10.6044 14.7288 11.2545 14.7309C11.9561 14.7325 12.6577 14.7301 13.3593 14.7282C14.7333 14.7252 16.1072 14.7258 17.4811 14.7278C18.5977 14.7294 19.7143 14.7296 20.8309 14.7288C20.9899 14.7287 21.1488 14.7286 21.3125 14.7285C21.6353 14.7283 21.9581 14.7281 22.2809 14.7278C25.308 14.7259 28.3352 14.7281 31.3623 14.7318C33.96 14.7349 36.5576 14.7343 39.1552 14.7312C42.1715 14.7275 45.1878 14.7261 48.2041 14.7282C48.5257 14.7284 48.8473 14.7286 49.1689 14.7288C49.3272 14.7289 49.4854 14.729 49.6485 14.7291C50.7638 14.7297 51.8791 14.7287 52.9944 14.7271C54.3535 14.7252 55.7126 14.7257 57.0717 14.7294C57.7652 14.7312 58.4587 14.7319 59.1522 14.7296C59.787 14.7276 60.4218 14.7287 61.0567 14.7323C61.2863 14.7331 61.516 14.7327 61.7456 14.731C63.877 14.7168 63.877 14.7168 64.6061 15.2977C65.4456 16.1694 65.43 16.9686 65.4209 18.1319C65.4222 18.3842 65.4222 18.3842 65.4235 18.6415C65.4253 19.1068 65.4247 19.5719 65.423 20.0371C65.4218 20.5395 65.4237 21.0418 65.4252 21.5441C65.4276 22.5275 65.4271 23.5109 65.4255 24.4944C65.4243 25.2937 65.4241 26.093 65.4247 26.8923C65.4248 27.0061 65.4249 27.12 65.4249 27.2372C65.4251 27.4684 65.4253 27.6996 65.4255 27.9308C65.427 30.0983 65.4252 32.2658 65.4223 34.4333C65.4199 36.2927 65.4203 38.1521 65.4228 40.0115C65.4257 42.1712 65.4269 44.331 65.4252 46.4908C65.425 46.7212 65.4249 46.9515 65.4247 47.1819C65.4246 47.3518 65.4246 47.3518 65.4244 47.5253C65.424 48.3236 65.4248 49.1218 65.426 49.9201C65.4276 50.893 65.4272 51.866 65.4242 52.8389C65.4228 53.3353 65.4222 53.8316 65.4241 54.3279C65.426 54.866 65.4237 55.4042 65.4209 55.9423C65.4228 56.1773 65.4228 56.1773 65.4246 56.4171C65.4159 57.303 65.3353 57.8511 64.8046 58.5703C64.1353 59.1907 63.6627 59.271 62.7663 59.2722C62.6692 59.2726 62.572 59.2729 62.472 59.2732C62.144 59.2741 61.816 59.2741 61.488 59.274C61.2515 59.2745 61.015 59.275 60.7785 59.2755C60.1265 59.2769 59.4746 59.2774 58.8227 59.2778C58.1203 59.2783 57.418 59.2796 56.7157 59.2808C55.0186 59.2835 53.3216 59.2849 51.6245 59.2861C50.8258 59.2867 50.0271 59.2874 49.2285 59.2882C46.5744 59.2905 43.9202 59.2925 41.2661 59.2935C40.5772 59.2937 39.8882 59.294 39.1992 59.2942C39.028 59.2943 38.8567 59.2944 38.6803 59.2944C35.9049 59.2956 33.1295 59.299 30.3542 59.3035C27.5063 59.308 24.6586 59.3105 21.8107 59.3109C20.2111 59.3112 18.6115 59.3124 17.0119 59.3159C15.65 59.3189 14.288 59.32 12.926 59.3186C12.2308 59.318 11.5357 59.3183 10.8406 59.3209C10.2044 59.3233 9.5682 59.3232 8.93197 59.3211C8.70168 59.3207 8.47138 59.3213 8.2411 59.323C7.92813 59.325 7.61535 59.3237 7.3024 59.3216C7.12855 59.3217 6.9547 59.3218 6.77558 59.322C6.02893 59.2175 5.52492 58.9152 5.00726 58.3567C4.68029 57.8662 4.63116 57.4982 4.63003 56.9228C4.62942 56.7792 4.62881 56.6356 4.62818 56.4877C4.6282 56.3294 4.62823 56.1712 4.62826 56.0081C4.62775 55.8404 4.62725 55.6726 4.62673 55.4998C4.62548 55.0334 4.62485 54.567 4.62449 54.1005C4.62396 53.5978 4.62265 53.0951 4.62146 52.5924C4.61875 51.378 4.61738 50.1635 4.61616 48.9491C4.61556 48.3773 4.61483 47.8055 4.61411 47.2337C4.61179 45.3333 4.6098 43.4328 4.60881 41.5324C4.60855 41.0392 4.60829 40.5459 4.60802 40.0527C4.60792 39.8688 4.60792 39.8688 4.60782 39.6812C4.60669 37.6949 4.60322 35.7086 4.59878 33.7222C4.59426 31.6834 4.5918 29.6445 4.59136 27.6056C4.59107 26.4607 4.58987 25.3158 4.58638 24.1708C4.58341 23.1958 4.58231 22.2209 4.58364 21.2459C4.58426 20.7485 4.584 20.2511 4.58135 19.7537C4.5785 19.2143 4.57989 18.6749 4.58169 18.1356C4.58019 17.9785 4.57869 17.8214 4.57715 17.6596C4.58534 16.6477 4.67291 16.0462 5.39383 15.2977C6.29844 14.5769 7.49983 14.7256 8.59313 14.7335ZM7.10931 17.2812C7.10931 24.9512 7.10931 32.6211 7.10931 40.5234C25.5171 40.5234 43.9249 40.5234 62.8906 40.5234C62.8906 32.8535 62.8906 25.1836 62.8906 17.2812C44.4828 17.2812 26.0749 17.2812 7.10931 17.2812ZM7.10931 42.9844C7.10931 47.5412 7.10931 52.098 7.10931 56.793C25.5171 56.793 43.9249 56.793 62.8906 56.793C62.8906 52.2361 62.8906 47.6793 62.8906 42.9844C44.4828 42.9844 26.0749 42.9844 7.10931 42.9844Z" fill="#797979"/>
<path d="M32.7013 19.7593C33.7471 20.3194 34.7195 20.9961 35.7005 21.6611C36.5371 22.2279 37.383 22.7798 38.2298 23.3311C38.6042 23.5762 38.9784 23.8215 39.3526 24.0667C39.8425 24.3873 40.3342 24.7051 40.8268 25.0216C41.1673 25.2409 41.5067 25.462 41.8459 25.6834C42.0082 25.7888 42.171 25.8934 42.3343 25.9973C43.3506 26.6442 44.0641 27.1027 44.3945 28.2994C44.4691 29.086 44.4535 29.7242 44.0233 30.4063C43.2246 31.3647 41.9913 31.9878 40.9491 32.6481C40.3328 33.0409 39.7217 33.4415 39.11 33.8413C38.8435 34.0153 38.577 34.1892 38.3105 34.3631C38.0272 34.5481 37.744 34.733 37.4608 34.918C37.3049 35.0198 37.1489 35.1216 36.993 35.2234C36.5941 35.4838 36.1953 35.7444 35.7965 36.005C35.5705 36.1526 35.3445 36.3002 35.1184 36.4479C34.9781 36.5396 34.8378 36.6313 34.6933 36.7258C34.5595 36.8131 34.4257 36.9005 34.2878 36.9905C33.8368 37.2879 33.391 37.5928 32.9474 37.9012C32.2971 38.2872 31.6125 38.4039 30.8726 38.2591C30.1503 38.0317 29.6718 37.6356 29.3065 36.9693C29.0387 36.3057 29.0625 35.6417 29.0657 34.9353C29.0648 34.7887 29.0638 34.6421 29.0629 34.491C29.0604 34.0081 29.0609 33.5253 29.0617 33.0424C29.061 32.7058 29.0603 32.3692 29.0595 32.0326C29.0583 31.3279 29.0586 30.6232 29.06 29.9185C29.0615 29.016 29.0588 28.1136 29.0548 27.2112C29.0523 26.5163 29.0523 25.8215 29.0531 25.1267C29.0531 24.794 29.0523 24.4613 29.0506 24.1285C29.0485 23.6632 29.05 23.198 29.0523 22.7327C29.051 22.5957 29.0497 22.4587 29.0483 22.3176C29.0583 21.3676 29.2293 20.7673 29.8862 20.0509C30.819 19.3296 31.6483 19.2674 32.7013 19.7593ZM31.5819 22.0664C31.5819 26.5781 31.5819 31.0899 31.5819 35.7383C32.406 35.2805 33.191 34.8212 33.9691 34.2969C34.0759 34.2255 34.1826 34.1542 34.2926 34.0807C34.6369 33.8504 34.9807 33.6194 35.3246 33.3884C35.5624 33.2291 35.8002 33.0697 36.0381 32.9105C36.3967 32.6703 36.7553 32.4302 37.1137 32.1898C37.8444 31.7 38.5767 31.2129 39.3108 30.7283C39.4839 30.6138 39.6571 30.4993 39.8302 30.3847C40.0707 30.2257 40.3113 30.0668 40.5523 29.9085C40.7693 29.766 40.9859 29.6226 41.2024 29.4791C41.3224 29.4001 41.4424 29.3211 41.566 29.2396C41.8516 29.0588 41.8516 29.0588 41.9725 28.7656C41.9061 28.7225 41.8398 28.6794 41.7714 28.635C40.4193 27.7568 39.0677 26.8777 37.7171 25.9971C37.5887 25.9134 37.4603 25.8297 37.328 25.7435C36.6785 25.3199 36.0294 24.8957 35.3813 24.47C35.0592 24.2585 34.7369 24.0471 34.4147 23.8358C34.1854 23.6853 33.9563 23.5344 33.7271 23.3835C33.586 23.291 33.4448 23.1984 33.2994 23.103C33.1755 23.0216 33.0516 22.9401 32.924 22.8562C32.4849 22.5793 32.0326 22.324 31.5819 22.0664Z" fill="#797979"/>
<path d="M39.4274 45.0859C39.5877 45.0856 39.7481 45.0853 39.9134 45.0849C40.251 45.085 40.5886 45.0869 40.9261 45.0903C41.4423 45.095 41.958 45.0931 42.4742 45.0905C42.803 45.0914 43.1318 45.0927 43.4606 45.0945C43.6913 45.0934 43.6913 45.0934 43.9267 45.0924C44.9365 45.1076 45.4268 45.2335 46.1624 45.9324C46.6317 46.51 46.7717 46.9149 46.782 47.6453C46.7847 47.8082 46.7847 47.8082 46.7874 47.9745C46.7884 48.0909 46.7894 48.2072 46.7904 48.3271C46.7915 48.4482 46.7926 48.5692 46.7938 48.6939C46.7957 48.95 46.7971 49.206 46.7982 49.4621C46.7998 49.7227 46.8026 49.9834 46.8066 50.244C46.8125 50.6219 46.8147 50.9997 46.8161 51.3776C46.8185 51.4929 46.8208 51.6082 46.8233 51.7269C46.8201 52.6043 46.6256 53.348 46.0082 53.999C45.448 54.4862 45.02 54.622 44.2943 54.6275C44.1547 54.6288 44.015 54.6301 43.8711 54.6315C43.6449 54.6324 43.6449 54.6324 43.4141 54.6333C43.2588 54.634 43.1036 54.6348 42.9436 54.6356C42.6148 54.6369 42.286 54.6378 41.9572 54.6383C41.4549 54.6397 40.9526 54.6439 40.4504 54.6482C40.1309 54.6491 39.8115 54.6498 39.492 54.6504C39.342 54.652 39.192 54.6537 39.0375 54.6555C38.1402 54.6529 37.484 54.5949 36.7961 53.9604C36.7307 53.88 36.6653 53.7996 36.5979 53.7168C36.5308 53.6365 36.4636 53.5561 36.3945 53.4733C36.1189 53.0784 36.0759 52.7262 36.0696 52.2593C36.0678 52.1451 36.0661 52.031 36.0643 51.9134C36.0628 51.7288 36.0628 51.7288 36.0612 51.5405C36.0601 51.4132 36.059 51.2859 36.0579 51.1547C36.056 50.885 36.0545 50.6153 36.0534 50.3455C36.0511 49.9353 36.0451 49.5253 36.039 49.1151C36.0377 48.8526 36.0365 48.5901 36.0356 48.3276C36.0332 48.206 36.0308 48.0843 36.0283 47.959C36.0311 47.1525 36.1379 46.5055 36.6407 45.8555C37.4452 45.0644 38.3533 45.0732 39.4274 45.0859ZM38.5547 47.6328C38.5547 49.1217 38.5547 50.6106 38.5547 52.1446C40.4496 52.1446 42.3446 52.1446 44.2969 52.1446C44.2969 50.6557 44.2969 49.1668 44.2969 47.6328C42.402 47.6328 40.5071 47.6328 38.5547 47.6328Z" fill="#797979"/>
<path d="M25.574 45.1455C25.7904 45.1422 25.7904 45.1422 26.0111 45.1389C26.6732 45.1328 27.3353 45.1272 27.9974 45.124C28.3462 45.1218 28.6949 45.118 29.0436 45.1128C29.5469 45.1053 30.0499 45.1023 30.5532 45.1003C30.7082 45.0972 30.8632 45.0941 31.0229 45.0909C31.9588 45.0934 32.6726 45.1764 33.3591 45.8555C33.9407 46.6108 33.9856 47.3892 33.9738 48.3132C33.974 48.4402 33.9742 48.5672 33.9745 48.6981C33.9742 48.9649 33.9727 49.2317 33.9698 49.4984C33.9658 49.9056 33.967 50.3125 33.9688 50.7197C33.9679 50.98 33.9668 51.2402 33.9653 51.5005C33.9657 51.6214 33.9661 51.7423 33.9665 51.8669C33.9542 52.6799 33.8325 53.2835 33.2609 53.9032C33.1805 53.9686 33.1002 54.034 33.0174 54.1013C32.8968 54.2021 32.8968 54.2021 32.7738 54.3048C32.3402 54.6073 31.9541 54.6236 31.4425 54.6275C31.3029 54.6288 31.1632 54.6301 31.0193 54.6315C30.7931 54.6324 30.7931 54.6324 30.5623 54.6333C30.407 54.634 30.2517 54.6348 30.0918 54.6356C29.763 54.6369 29.4342 54.6378 29.1053 54.6383C28.603 54.6397 28.1008 54.6439 27.5985 54.6482C27.2791 54.6491 26.9596 54.6498 26.6402 54.6504C26.4902 54.652 26.3402 54.6537 26.1857 54.6555C25.423 54.6532 24.8504 54.6399 24.199 54.1953C23.3461 53.3037 23.1996 52.618 23.2008 51.4321C23.2003 51.3109 23.1997 51.1898 23.1991 51.0649C23.1983 50.8091 23.1982 50.5533 23.1988 50.2975C23.1992 49.908 23.196 49.5187 23.1926 49.1293C23.1922 48.88 23.1922 48.6308 23.1923 48.3816C23.191 48.2661 23.1898 48.1505 23.1885 48.0315C23.195 47.1945 23.3137 46.5072 23.8919 45.8608C23.9735 45.797 24.0551 45.7332 24.1392 45.6675C24.2211 45.6016 24.3031 45.5357 24.3875 45.4678C24.7999 45.1717 25.0716 45.1525 25.574 45.1455ZM25.7029 47.6328C25.7029 49.1217 25.7029 50.6106 25.7029 52.1446C27.5978 52.1446 29.4927 52.1446 31.4451 52.1446C31.4451 50.6557 31.4451 49.1668 31.4451 47.6328C29.5502 47.6328 27.6552 47.6328 25.7029 47.6328Z" fill="#797979"/>
<path d="M52.2355 45.104C52.3931 45.1038 52.5506 45.1036 52.7129 45.1034C53.0449 45.1037 53.3769 45.1052 53.7088 45.1081C54.2162 45.112 54.7234 45.1109 55.2308 45.1091C55.554 45.11 55.8772 45.1111 56.2004 45.1126C56.4273 45.112 56.4273 45.112 56.6588 45.1114C57.6639 45.1236 58.2998 45.2215 59.0282 45.9665C59.5919 46.7651 59.6515 47.4855 59.6504 48.4307C59.651 48.5453 59.6516 48.6599 59.6522 48.7779C59.653 49.0195 59.653 49.261 59.6524 49.5025C59.652 49.8695 59.6552 50.2363 59.6587 50.6032C59.659 50.8389 59.6591 51.0746 59.6589 51.3103C59.6602 51.4187 59.6615 51.5271 59.6628 51.6388C59.6559 52.4802 59.5205 53.2635 58.9641 53.9299C58.8838 53.9921 58.8034 54.0543 58.7206 54.1184C58.6402 54.1831 58.5599 54.2478 58.4771 54.3144C58.0405 54.6012 57.6573 54.6241 57.1501 54.6297C56.9419 54.6323 56.9419 54.6323 56.7296 54.635C56.5796 54.636 56.4297 54.637 56.2752 54.638C56.0432 54.6397 56.0432 54.6397 55.8066 54.6414C55.4789 54.6433 55.1513 54.6447 54.8236 54.6458C54.3243 54.6482 53.8251 54.6542 53.3258 54.6602C53.0073 54.6616 52.6887 54.6627 52.3701 54.6637C52.2215 54.6661 52.073 54.6685 51.9199 54.6709C51.0492 54.6684 50.3441 54.5886 49.6288 54.0586C49.1626 53.4729 48.9316 52.9921 48.9188 52.2467C48.9166 52.1298 48.9145 52.0129 48.9122 51.8925C48.9061 51.3574 48.9005 50.8223 48.8973 50.2871C48.8951 50.0056 48.8914 49.7241 48.8861 49.4426C48.8786 49.0353 48.8756 48.6282 48.8736 48.2208C48.8706 48.0961 48.8675 47.9715 48.8643 47.8431C48.8671 46.9734 49.0403 46.3734 49.6288 45.7187C50.4432 45.0613 51.2174 45.0937 52.2355 45.104ZM51.4062 47.6328C51.4062 49.1217 51.4062 50.6105 51.4062 52.1445C53.3011 52.1445 55.196 52.1445 57.1483 52.1445C57.1483 50.6556 57.1483 49.1668 57.1483 47.6328C55.2534 47.6328 53.3585 47.6328 51.4062 47.6328Z" fill="#797979"/>
<path d="M12.8621 45.1455C13.0036 45.1433 13.1451 45.1411 13.2909 45.1389C13.9388 45.1328 14.5866 45.1272 15.2345 45.124C15.5757 45.1218 15.9168 45.118 16.258 45.1128C16.7508 45.1053 17.2435 45.1023 17.7364 45.1003C17.9637 45.0957 17.9637 45.0957 18.1957 45.0909C19.1237 45.0935 19.826 45.1849 20.5076 45.8555C21.0856 46.6073 21.1356 47.3838 21.1271 48.3036C21.1279 48.4931 21.1279 48.4931 21.1287 48.6865C21.129 48.9521 21.1281 49.2178 21.1258 49.4834C21.1228 49.8876 21.1257 50.2915 21.1292 50.6957C21.1289 50.955 21.1282 51.2144 21.1271 51.4738C21.1282 51.5933 21.1293 51.7128 21.1304 51.836C21.1184 52.6319 20.9719 53.263 20.5076 53.9219C19.8787 54.4225 19.3883 54.621 18.5931 54.6297C18.4539 54.6314 18.3147 54.6332 18.1713 54.635C18.0209 54.636 17.8705 54.637 17.7155 54.6381C17.4831 54.6397 17.4831 54.6397 17.246 54.6414C16.9178 54.6433 16.5895 54.6448 16.2613 54.6458C15.7605 54.6482 15.2598 54.6542 14.759 54.6602C14.44 54.6616 14.121 54.6628 13.802 54.6637C13.578 54.6673 13.578 54.6673 13.3496 54.671C12.466 54.6685 11.9292 54.5848 11.2107 54.0586C10.4324 53.2592 10.3481 52.4094 10.3493 51.3467C10.3487 51.2321 10.3481 51.1175 10.3475 50.9994C10.3467 50.7579 10.3466 50.5163 10.3472 50.2748C10.3477 49.9079 10.3445 49.5411 10.341 49.1741C10.3407 48.9384 10.3406 48.7027 10.3407 48.467C10.3395 48.3586 10.3382 48.2502 10.3369 48.1385C10.3438 47.2972 10.4791 46.5139 11.0355 45.8475C11.1159 45.7853 11.1963 45.7231 11.2791 45.659C11.3996 45.5619 11.3996 45.5619 11.5226 45.463C11.9626 45.174 12.351 45.1527 12.8621 45.1455ZM12.8513 47.6328C12.8513 49.1217 12.8513 50.6106 12.8513 52.1446C14.7463 52.1446 16.6412 52.1446 18.5935 52.1446C18.5935 50.6557 18.5935 49.1668 18.5935 47.6328C16.6986 47.6328 14.8037 47.6328 12.8513 47.6328Z" fill="#797979"/>
<path d="M16.4097 19.429C16.5746 19.4264 16.5746 19.4264 16.743 19.4237C16.9205 19.4233 16.9205 19.4233 17.1016 19.4228C17.2238 19.4219 17.346 19.421 17.4719 19.4201C17.7305 19.4187 17.9891 19.418 18.2477 19.4181C18.6426 19.4175 19.0373 19.4125 19.4322 19.4073C19.6836 19.4065 19.9349 19.406 20.1863 19.4057C20.363 19.4028 20.363 19.4028 20.5433 19.3998C21.0967 19.404 21.394 19.4262 21.878 19.7168C22.2532 20.1314 22.2852 20.4191 22.2852 20.9727C22.068 21.4613 21.9138 21.6304 21.4648 21.9297C21.2073 21.9663 21.2073 21.9663 20.9146 21.9694C20.8046 21.9712 20.6946 21.9729 20.5813 21.9747C20.4037 21.9752 20.4037 21.9752 20.2226 21.9756C20.1004 21.9765 19.9782 21.9774 19.8523 21.9784C19.5937 21.9798 19.3351 21.9804 19.0765 21.9804C18.6816 21.981 18.2869 21.9859 17.892 21.9911C17.6406 21.9919 17.3893 21.9925 17.1379 21.9927C17.0201 21.9947 16.9023 21.9966 16.7809 21.9987C16.2242 21.9944 15.931 21.9735 15.4462 21.6769C15.0955 21.2955 15.0391 21.0792 15.0391 20.5625C15.3178 19.8378 15.6038 19.4377 16.4097 19.429Z" fill="#797979"/>
<path d="M11.0487 19.4346C11.2996 19.4293 11.2996 19.4293 11.5555 19.4239C12.0622 19.4717 12.3136 19.5732 12.715 19.8789C12.9308 20.3107 12.9637 20.7822 12.8517 21.2461C12.4767 21.7506 12.2721 21.9116 11.6468 22.0205C11.456 22.0223 11.2651 22.0204 11.0743 22.0151C10.9311 22.0191 10.9311 22.0191 10.7849 22.0231C10.2521 22.0181 9.99992 21.9446 9.57524 21.6173C9.15836 21.0612 9.19986 20.8323 9.29699 20.1523C9.81281 19.4818 10.2304 19.4449 11.0487 19.4346Z" fill="#797979"/>
<path d="M58.9257 35.7981C59.0361 35.7948 59.1464 35.7916 59.2601 35.7882C59.83 35.7896 60.0695 35.7956 60.5023 36.1917C60.7673 36.6759 60.7809 36.9709 60.7031 37.5156C60.321 38.1433 60.321 38.1433 59.9057 38.2841C59.1299 38.4197 58.2569 38.4646 57.5585 38.0625C57.2796 37.8366 57.1619 37.7182 57.0891 37.3623C57.0889 37.2578 57.0888 37.1533 57.0886 37.0456C57.0859 36.9415 57.0833 36.8373 57.0806 36.73C57.2963 35.7498 58.0933 35.7868 58.9257 35.7981Z" fill="#797979"/>
<path d="M53.1237 35.7981C53.2268 35.7966 53.33 35.7951 53.4363 35.7935C53.9279 35.8 54.2196 35.8311 54.6153 36.1324C54.8622 36.4746 54.9403 36.6839 54.9608 37.1055C54.8272 37.5731 54.6654 37.9006 54.2772 38.1992C53.4886 38.4461 52.6548 38.4453 51.8846 38.1565C51.5428 37.9258 51.5428 37.9258 51.2694 37.5156C51.1944 36.9372 51.1903 36.6655 51.5418 36.1906C52.0868 35.7723 52.4562 35.7769 53.1237 35.7981Z" fill="#797979"/>
</g>
<defs>
<clipPath id="clip0_811_163">
<rect width="70" height="70" fill="white" transform="translate(0 0.875)"/>
</clipPath>
</defs>
</svg>
