<svg width="48" height="48" viewBox="0 0 48 48" fill="none" xmlns="http://www.w3.org/2000/svg">
<rect width="48" height="48" rx="24" fill="#0065C9"/>
<path fill-rule="evenodd" clip-rule="evenodd" d="M24 33C28.9706 33 33 28.9706 33 24C33 19.0294 28.9706 15 24 15C19.0294 15 15 19.0294 15 24C15 24.7706 15.0969 25.5187 15.2791 26.2326L15.5422 28.3373C15.5556 28.4452 15.5534 28.5545 15.5355 28.6618L15.1927 30.7191C15.0875 31.3497 15.5284 31.9411 16.1628 32.0204L21.7674 32.7209C22.4813 32.9031 23.2294 33 24 33ZM27.75 24C27.75 24.6904 28.3096 25.25 29 25.25C29.6904 25.25 30.25 24.6904 30.25 24C30.25 23.3096 29.6904 22.75 29 22.75C28.3096 22.75 27.75 23.3096 27.75 24ZM24 25.25C23.3096 25.25 22.75 24.6904 22.75 24C22.75 23.3096 23.3096 22.75 24 22.75C24.6904 22.75 25.25 23.3096 25.25 24C25.25 24.6904 24.6904 25.25 24 25.25ZM17.75 24C17.75 24.6904 18.3096 25.25 19 25.25C19.6904 25.25 20.25 24.6904 20.25 24C20.25 23.3096 19.6904 22.75 19 22.75C18.3096 22.75 17.75 23.3096 17.75 24Z" fill="#FDFDFD"/>
</svg>
