<svg width="72" height="96" viewBox="0 0 72 96" fill="none" xmlns="http://www.w3.org/2000/svg">
<path fill-rule="evenodd" clip-rule="evenodd" d="M0.832031 46.9029V96H19.6526V64.1829H38.061C44.5635 64.1829 50.2875 62.8114 55.233 60.0686C60.1786 57.2343 64.0709 53.3943 66.91 48.5486C69.7491 43.7029 71.1687 38.1714 71.1687 31.9543C71.1687 25.6457 69.7033 20.1143 66.7726 15.36C63.8419 10.5143 59.7664 6.76572 54.5461 4.11429C49.3258 1.37143 43.3271 0 36.5499 0H0.832031V17.1429H19.6526H36.1377C40.8085 17.1429 44.6093 18.5143 47.5399 21.2571C50.5622 24 52.0734 27.5657 52.0734 31.9543C52.0734 36.3429 50.6996 39.9543 47.9521 42.7886C45.2961 45.5314 41.8617 46.9029 37.6489 46.9029H19.6526H0.832031Z" fill="white"/>
</svg>
