<svg width="16" height="16" viewBox="0 0 16 16" fill="none" xmlns="http://www.w3.org/2000/svg">
<path d="M15.0292 14.0661L12.3145 11.3733C13.3682 10.0594 13.8786 8.39164 13.7405 6.71303C13.6024 5.03442 12.8264 3.4725 11.5721 2.34845C10.3178 1.22439 8.6805 0.623632 6.99684 0.669703C5.31319 0.715774 3.71118 1.40517 2.52021 2.59614C1.32924 3.78711 0.639846 5.38912 0.593775 7.07277C0.547705 8.75642 1.14846 10.3937 2.27252 11.6481C3.39657 12.9024 4.95849 13.6783 6.6371 13.8164C8.31572 13.9545 9.98344 13.4442 11.2973 12.3904L13.9902 15.0832C14.0582 15.1518 14.1391 15.2062 14.2283 15.2434C14.3175 15.2805 14.4131 15.2997 14.5097 15.2997C14.6063 15.2997 14.7019 15.2805 14.7911 15.2434C14.8803 15.2062 14.9612 15.1518 15.0292 15.0832C15.1611 14.9468 15.2348 14.7644 15.2348 14.5746C15.2348 14.3849 15.1611 14.2025 15.0292 14.0661ZM7.19228 12.3904C6.1792 12.3904 5.18888 12.09 4.34654 11.5271C3.5042 10.9643 2.84768 10.1643 2.45999 9.22838C2.0723 8.29242 1.97087 7.26252 2.16851 6.26891C2.36615 5.27531 2.85399 4.36262 3.57034 3.64627C4.28669 2.92992 5.19938 2.44208 6.19299 2.24443C7.18659 2.04679 8.2165 2.14823 9.15245 2.53592C10.0884 2.9236 10.8884 3.58013 11.4512 4.42247C12.0141 5.26481 12.3145 6.25513 12.3145 7.2682C12.3145 8.62669 11.7748 9.92954 10.8142 10.8901C9.85361 11.8507 8.55077 12.3904 7.19228 12.3904Z" fill="white"/>
</svg>
