<svg width="20" height="18" viewBox="0 0 20 18" fill="none" xmlns="http://www.w3.org/2000/svg">
<path fill-rule="evenodd" clip-rule="evenodd" d="M14.7815 0.768485C13.3726 0.0241069 11.9692 1.17803 11.9692 2.53995C11.9692 2.59894 11.947 2.66145 11.8887 2.72164C11.8272 2.78499 11.7349 2.83367 11.6296 2.84563C7.84167 3.27543 5.26833 5.61082 3.61647 8.26069C1.97278 10.8975 1.18387 13.9252 0.954385 15.9905C0.908113 16.4069 1.14958 16.8019 1.54133 16.9506C1.93308 17.0992 2.37578 16.9638 2.61741 16.6215C3.42791 15.4733 4.85485 13.8125 6.56392 12.4427C8.29213 11.0575 10.178 10.0749 11.9301 10.0504L11.9316 10.052C11.9468 10.069 11.9692 10.1101 11.9692 10.1697C11.9692 11.6351 13.5405 12.7417 14.9369 11.9038C16.0962 11.2082 17.3982 10.2628 18.3057 9.17807C19.1953 8.11486 19.8887 6.67827 19.2419 5.16893C18.3246 3.02876 16.306 1.57395 14.7815 0.768485ZM13.8059 2.53995C13.8059 2.45186 13.8458 2.40605 13.8707 2.38936C13.8828 2.38126 13.8899 2.3808 13.8899 2.3808C13.8899 2.3808 13.8921 2.38065 13.8958 2.38147C13.8995 2.38226 13.9087 2.38471 13.9234 2.39249C15.3121 3.12618 16.883 4.32773 17.5536 5.89246C17.7863 6.43526 17.6337 7.11906 16.8971 7.99941C16.1785 8.85828 15.074 9.67956 13.9919 10.3288C13.9601 10.3479 13.9419 10.3486 13.9341 10.3485C13.9231 10.3482 13.9063 10.3449 13.8863 10.3327C13.8467 10.3085 13.8059 10.2572 13.8059 10.1697C13.8059 9.21063 13.0866 8.19904 11.9145 8.21369C9.5462 8.24328 7.25743 9.53297 5.4152 11.0095C4.7599 11.5348 4.14446 12.097 3.58304 12.6604C3.96641 11.5193 4.48918 10.3328 5.17516 9.23233C6.63566 6.88944 8.77754 5.01776 11.8366 4.67065C12.8651 4.55396 13.8059 3.7107 13.8059 2.53995Z" fill="black"/>
</svg>
