<svg width="39" height="39" viewBox="0 0 39 39" fill="none" xmlns="http://www.w3.org/2000/svg">
<rect x="0.193848" y="0.183716" width="38.0408" height="38.0408" rx="19.0204" fill="#E6F0FA"/>
<path fill-rule="evenodd" clip-rule="evenodd" d="M24.7815 10.7685C23.3726 10.0241 21.9692 11.178 21.9692 12.54C21.9692 12.5989 21.947 12.6615 21.8887 12.7216C21.8272 12.785 21.7349 12.8337 21.6296 12.8456C17.8417 13.2754 15.2683 15.6108 13.6165 18.2607C11.9728 20.8975 11.1839 23.9252 10.9544 25.9905C10.9081 26.4069 11.1496 26.8019 11.5413 26.9506C11.9331 27.0992 12.3758 26.9638 12.6174 26.6215C13.4279 25.4733 14.8548 23.8125 16.5639 22.4427C18.2921 21.0575 20.178 20.0749 21.9301 20.0504L21.9316 20.052C21.9468 20.069 21.9692 20.1101 21.9692 20.1697C21.9692 21.6351 23.5405 22.7417 24.9369 21.9038C26.0962 21.2082 27.3982 20.2628 28.3057 19.1781C29.1953 18.1149 29.8887 16.6783 29.2419 15.1689C28.3246 13.0288 26.306 11.574 24.7815 10.7685ZM23.8059 12.54C23.8059 12.4519 23.8458 12.406 23.8707 12.3894C23.8828 12.3813 23.8899 12.3808 23.8899 12.3808C23.8899 12.3808 23.8921 12.3807 23.8958 12.3815C23.8995 12.3823 23.9087 12.3847 23.9234 12.3925C25.3121 13.1262 26.883 14.3277 27.5536 15.8925C27.7863 16.4353 27.6337 17.1191 26.8971 17.9994C26.1785 18.8583 25.074 19.6796 23.9919 20.3288C23.9601 20.3479 23.9419 20.3486 23.9341 20.3485C23.9231 20.3482 23.9063 20.3449 23.8863 20.3327C23.8467 20.3085 23.8059 20.2572 23.8059 20.1697C23.8059 19.2106 23.0866 18.199 21.9145 18.2137C19.5462 18.2433 17.2574 19.533 15.4152 21.0095C14.7599 21.5348 14.1445 22.097 13.583 22.6604C13.9664 21.5193 14.4892 20.3328 15.1752 19.2323C16.6357 16.8894 18.7775 15.0178 21.8366 14.6707C22.8651 14.554 23.8059 13.7107 23.8059 12.54Z" fill="black"/>
</svg>
