<svg width="70" height="71" viewBox="0 0 70 71" fill="none" xmlns="http://www.w3.org/2000/svg">
<g clip-path="url(#clip0_811_127)">
<path d="M10.2956 9.42899C10.4001 9.42827 10.5046 9.42756 10.6122 9.42682C10.8316 9.42594 11.0511 9.42611 11.2705 9.42729C11.6024 9.42845 11.9339 9.42451 12.2658 9.42018C13.6174 9.41417 14.6503 9.54487 15.8253 10.2659C16.8964 11.3667 17.2697 12.5273 17.2678 14.0358C17.2684 14.1388 17.2689 14.2419 17.2695 14.348C17.2703 14.5639 17.2704 14.7798 17.2698 14.9956C17.2694 15.3251 17.2726 15.6543 17.2761 15.9837C17.2764 16.1946 17.2765 16.4055 17.2763 16.6163C17.2776 16.714 17.2788 16.8118 17.2801 16.9124C17.2746 17.5141 17.1866 17.8966 16.8165 18.375C16.4264 18.57 16.1555 18.5541 15.7227 18.5117C15.3588 18.3026 15.3588 18.3026 15.0391 17.9648C14.9733 17.5806 14.9499 17.2769 14.9569 16.8935C14.9558 16.79 14.9547 16.6865 14.9536 16.5799C14.9504 16.2496 14.9517 15.9196 14.9537 15.5893C14.9542 15.2601 14.9537 14.931 14.9509 14.6017C14.9492 14.3972 14.9496 14.1927 14.9522 13.9882C14.9482 13.2328 14.7693 12.6941 14.2872 12.1116C13.6561 11.612 12.6928 11.7765 11.9337 11.7721C11.7432 11.7706 11.5526 11.7678 11.3621 11.7637C11.0858 11.7579 10.8097 11.7557 10.5333 11.7543C10.3684 11.7523 10.2035 11.7503 10.0335 11.7482C9.47553 11.8256 9.18596 12.0086 8.75009 12.3594C8.2526 13.1056 8.32015 13.8805 8.32165 14.7486C8.32119 14.9453 8.32119 14.9453 8.32071 15.1459C8.31985 15.5856 8.31996 16.0252 8.32007 16.4649C8.31966 16.7799 8.3192 17.095 8.31868 17.4101C8.31747 18.2663 8.31715 19.1225 8.31706 19.9787C8.31693 20.6932 8.31643 21.4077 8.31595 22.1222C8.3149 23.7116 8.31449 25.3009 8.31458 26.8902C8.31459 27.0332 8.31459 27.0332 8.3146 27.1791C8.3146 27.3222 8.3146 27.3222 8.31461 27.4683C8.31467 29.0152 8.31336 30.5621 8.31143 32.1091C8.30947 33.698 8.30855 35.287 8.30864 36.876C8.30868 37.7679 8.30829 38.6597 8.30684 39.5516C8.30552 40.3903 8.30551 41.229 8.3065 42.0677C8.30664 42.3755 8.30632 42.6833 8.3055 42.9911C8.30444 43.4114 8.30507 43.8316 8.30613 44.2518C8.30542 44.3736 8.30472 44.4953 8.304 44.6208C8.30855 45.4423 8.33908 46.2028 8.87826 46.8638C9.57904 47.4159 10.5258 47.2481 11.3746 47.248C11.6704 47.2483 11.9662 47.2508 12.262 47.2533C12.4511 47.2538 12.6402 47.254 12.8292 47.2542C13.0006 47.2547 13.172 47.2553 13.3485 47.2559C13.7964 47.2235 14.0978 47.1599 14.4923 46.9492C14.6734 46.6217 14.6734 46.6217 14.7657 46.2656C14.8108 46.1303 14.8559 45.9949 14.9024 45.8555C14.9153 45.529 14.9195 45.2022 14.9195 44.8755C14.9197 44.7751 14.9198 44.6746 14.92 44.5711C14.9205 44.2336 14.9201 43.896 14.9197 43.5585C14.9198 43.3169 14.9201 43.0753 14.9204 42.8336C14.921 42.3128 14.9213 41.792 14.9213 41.2712C14.9215 40.4481 14.9232 39.6249 14.9254 38.8018C14.9257 38.6629 14.9261 38.5241 14.9264 38.3811C14.9271 38.0972 14.9279 37.8132 14.9286 37.5293C14.9334 35.6126 14.937 33.6958 14.9367 31.7791C14.9365 30.4866 14.9386 29.1941 14.9436 27.9016C14.9461 27.2174 14.9474 26.5332 14.9457 25.8489C14.9442 25.2056 14.9458 24.5623 14.9498 23.9189C14.9507 23.6826 14.9504 23.4462 14.9489 23.2099C14.947 22.8876 14.9493 22.5656 14.9527 22.2434C14.9529 22.0629 14.9531 21.8825 14.9533 21.6966C15.0391 21.2461 15.0391 21.2461 15.3602 20.9141C15.8014 20.6526 16.038 20.624 16.5431 20.6992C16.9718 20.9425 17.0682 21.0442 17.2267 21.5195C17.2379 21.7619 17.2413 22.0048 17.24 22.2474C17.2397 22.3741 17.2393 22.5008 17.239 22.6313C17.2377 22.7917 17.2365 22.9521 17.2352 23.1174C17.2324 23.6278 17.2296 24.1382 17.2267 24.6641C18.8058 24.6641 20.3849 24.6641 22.0118 24.6641C21.9903 23.6007 21.9903 23.6007 21.9625 22.5375C21.9509 21.3866 22.1382 20.475 22.8081 19.5253C23.8135 18.56 24.8401 18.0815 26.2501 18.1016C27.1161 18.1951 27.8151 18.5077 28.5743 18.9219C28.6291 18.8591 28.6839 18.7964 28.7404 18.7317C29.6342 17.7671 30.5616 17.3476 31.8764 17.2663C32.7411 17.2995 33.5555 17.5605 34.3165 17.9648C34.3697 17.8938 34.4229 17.8228 34.4778 17.7496C35.2197 16.8247 36.0672 16.2441 37.2559 16.0593C38.4355 15.9908 39.5158 16.3107 40.4688 17.0078C40.7775 17.3031 41.0579 17.6048 41.2892 17.9648C41.2892 18.0551 41.2892 18.1453 41.2892 18.2383C41.3641 18.1988 41.439 18.1593 41.5161 18.1186C42.6913 17.5683 43.9192 17.4503 45.1696 17.8329C46.3266 18.3534 47.0687 19.0979 47.5334 20.2773C47.8059 21.1359 47.7589 22.0038 47.7406 22.8953C47.7321 23.479 47.7236 24.0627 47.7149 24.6641C49.3843 24.6641 51.0536 24.6641 52.7735 24.6641C52.7688 23.8311 52.764 22.9982 52.7591 22.1401C52.757 21.6105 52.755 21.0809 52.7535 20.5513C52.751 19.7118 52.7482 18.8723 52.7426 18.0329C52.7381 17.3556 52.7357 16.6783 52.7346 16.0011C52.7339 15.7435 52.7324 15.4859 52.7302 15.2283C52.7035 12.0113 52.7035 12.0113 53.651 10.8004C54.506 9.93703 55.5128 9.46573 56.7298 9.44326C56.8294 9.44296 56.929 9.44265 57.0316 9.44234C57.1367 9.44143 57.2419 9.44052 57.3503 9.43958C57.5719 9.4382 57.7935 9.43756 58.0152 9.4376C58.351 9.437 58.6865 9.43204 59.0223 9.42685C61.1192 9.41162 61.1192 9.41162 62.0704 10.0351C62.1811 10.106 62.2918 10.1768 62.4058 10.2498C63.3224 11.0429 63.8343 11.9324 63.9633 13.1479C64.0019 13.7054 63.9986 14.2618 63.993 14.8203C63.9924 14.9393 63.9918 15.0582 63.9911 15.1808C63.9895 15.4708 63.9871 15.7608 63.9845 16.0508C64.125 16.0486 64.125 16.0486 64.2683 16.0464C64.6978 16.0407 65.1272 16.0372 65.5567 16.0337C65.7041 16.0314 65.8514 16.0291 66.0032 16.0267C67.2135 16.0194 68.1973 16.0896 69.1798 16.8711C69.8226 17.5853 70.0339 18.0636 70.0376 19.0267C70.0383 19.1197 70.039 19.2126 70.0397 19.3084C70.0418 19.6196 70.0419 19.9309 70.042 20.2422C70.043 20.4654 70.0442 20.6887 70.0454 20.9119C70.0484 21.5184 70.0496 22.1249 70.0503 22.7314C70.0508 23.1105 70.0517 23.4896 70.0527 23.8687C70.056 25.1917 70.0578 26.5146 70.0583 27.8376C70.0588 29.07 70.0629 30.3023 70.0686 31.5346C70.0733 32.5932 70.0754 33.6517 70.0755 34.7103C70.0756 35.3423 70.0768 35.9743 70.0807 36.6063C70.0843 37.201 70.0846 37.7957 70.0824 38.3905C70.0822 38.6083 70.0831 38.8261 70.0853 39.0439C70.0975 40.3434 70.0369 41.2581 69.1241 42.2328C68.1485 43.1449 66.9498 43.0191 65.702 43.0015C65.5368 43.0002 65.3715 42.999 65.2013 42.9977C64.7957 42.9945 64.3901 42.99 63.9845 42.9844C63.9876 43.1544 63.9908 43.3245 63.9941 43.4997C64.0422 47.0997 64.0422 47.0997 62.778 48.4451C61.8616 49.3075 60.9202 49.6101 59.6842 49.6158C59.5774 49.6171 59.4705 49.6185 59.3605 49.6199C59.1357 49.622 58.911 49.6229 58.6863 49.6229C58.3474 49.6238 58.0091 49.6312 57.6703 49.639C56.2022 49.6547 54.9385 49.5059 53.8327 48.4256C52.5711 46.9971 52.718 45.2106 52.7335 43.4234C52.7342 43.1617 52.7348 42.9 52.7352 42.6384C52.7368 41.9538 52.7408 41.2692 52.7454 40.5845C52.7496 39.8843 52.7514 39.1841 52.7535 38.4839C52.7579 37.1129 52.7651 35.742 52.7735 34.3711C51.6907 34.3711 50.6079 34.3711 49.4923 34.3711C49.5007 34.8364 49.5007 34.8364 49.5094 35.311C49.5155 37.3515 48.9333 38.5616 47.6124 40.0876C47.542 40.1696 47.4717 40.2516 47.3992 40.336C47.0589 40.7306 46.7145 41.1168 46.3526 41.4917C45.4362 42.4893 45.244 43.295 45.2809 44.652C45.302 45.5132 45.302 45.5132 45.0094 45.9324C44.5701 46.218 44.2628 46.193 43.7501 46.1289C43.3146 45.8882 43.226 45.7872 43.0665 45.3086C43.0278 44.7966 43.0285 44.2838 43.0238 43.7705C43.0198 43.6304 43.0158 43.4903 43.0118 43.3459C43.0017 42.1458 43.2899 41.5073 44.1175 40.626C46.2893 38.4326 46.2893 38.4326 47.1857 35.6411C47.1862 35.5174 47.1866 35.3938 47.187 35.2664C47.1868 35.1345 47.1865 35.0026 47.1862 34.8667C47.1863 34.7297 47.1865 34.5927 47.1866 34.4515C47.1867 34.1624 47.1865 33.8733 47.1859 33.5841C47.1851 33.1422 47.1859 32.7003 47.1867 32.2584C47.1867 31.9771 47.1865 31.6958 47.1862 31.4145C47.1866 31.2167 47.1866 31.2167 47.187 31.0149C47.1866 30.8912 47.1862 30.7676 47.1857 30.6402C47.1856 30.532 47.1855 30.4239 47.1854 30.3124C47.1666 29.9688 47.1062 29.648 47.0313 29.3125C46.561 29.1557 46.1928 29.1555 45.6966 29.1516C45.5564 29.1502 45.5564 29.1502 45.4135 29.1488C45.1045 29.1462 44.7955 29.1446 44.4866 29.1432C44.3809 29.1426 44.2752 29.1421 44.1663 29.1415C43.6068 29.1387 43.0474 29.1367 42.488 29.1354C41.911 29.1339 41.3341 29.1292 40.7572 29.1238C40.3128 29.1202 39.8684 29.1191 39.424 29.1186C39.2113 29.1179 38.9987 29.1163 38.786 29.1138C38.4879 29.1104 38.19 29.1106 37.8918 29.1115C37.6378 29.1103 37.6378 29.1103 37.3786 29.1091C36.824 29.1887 36.5277 29.3746 36.0938 29.7226C35.8851 30.1199 35.8313 30.506 35.8204 30.9531C35.9744 31.4422 36.1131 31.6804 36.5133 31.9975C37.0595 32.2511 37.5282 32.2413 38.1233 32.2391C38.239 32.2406 38.3548 32.2421 38.474 32.2436C38.8428 32.2483 39.2114 32.2504 39.5802 32.2519C40.0659 32.2539 40.5514 32.2585 41.0371 32.2648C41.148 32.2643 41.259 32.2639 41.3733 32.2635C42.0035 32.2718 42.4192 32.3209 42.9298 32.7305C43.2032 33.1406 43.2032 33.1406 43.1861 33.6191C43.0665 34.0976 43.0665 34.0976 42.8325 34.3295C42.4492 34.548 42.2085 34.5587 41.7685 34.558C41.6157 34.5588 41.463 34.5596 41.3056 34.5604C41.1387 34.5591 40.9717 34.5578 40.7997 34.5565C40.5351 34.557 40.5351 34.557 40.2653 34.5574C39.7816 34.5581 39.298 34.5562 38.8143 34.5539C38.307 34.5518 37.7997 34.552 37.2924 34.5519C36.4395 34.5514 35.5866 34.5493 34.7337 34.5463C33.6426 34.5423 32.5516 34.5409 31.4605 34.5403C30.5192 34.5397 29.5779 34.538 28.6367 34.5361C28.3359 34.5356 28.0352 34.5352 27.7344 34.5348C27.1707 34.534 26.6069 34.532 26.0431 34.5298C25.8781 34.5297 25.713 34.5295 25.543 34.5294C24.5866 34.5246 23.6461 34.4759 22.6954 34.3711C22.7894 36.1547 22.9524 37.1433 24.1314 38.5068C24.5402 38.9849 24.9367 39.4733 25.3358 39.9595C25.4976 40.1556 25.6594 40.3518 25.8212 40.548C25.8954 40.6384 25.9695 40.7287 26.0459 40.8218C26.2203 41.034 26.3961 41.2451 26.5721 41.4559C26.9417 41.9458 26.9512 42.3455 26.9529 42.9406C26.9537 43.1024 26.9544 43.2642 26.9552 43.4309C26.9555 43.6974 26.9555 43.6974 26.9557 43.9694C26.9563 44.1582 26.957 44.3471 26.9578 44.536C26.9596 45.0492 26.9604 45.5625 26.9611 46.0758C26.9615 46.3964 26.962 46.7171 26.9626 47.0377C26.9645 48.041 26.9658 49.0442 26.9663 50.0474C26.967 51.2056 26.9694 52.3637 26.9733 53.5219C26.9763 54.4171 26.9776 55.3123 26.9778 56.2075C26.978 56.7422 26.9788 57.2769 26.9812 57.8116C26.9835 58.3145 26.9838 58.8175 26.9826 59.3204C26.9824 59.5928 26.9843 59.8652 26.9862 60.1375C26.9851 60.3814 26.9851 60.3814 26.9839 60.6301C26.9841 60.7711 26.9843 60.9121 26.9845 61.0574C26.9253 61.5048 26.7884 61.7626 26.5235 62.125C26.1008 62.3363 25.7587 62.3018 25.2931 62.2617C24.9224 61.9806 24.7654 61.8187 24.6798 61.3567C24.6807 61.2198 24.6816 61.083 24.6826 60.942C24.6823 60.7845 24.6819 60.6269 24.6816 60.4646C24.684 60.2923 24.6864 60.12 24.6889 59.9425C24.6895 59.7588 24.6898 59.575 24.6899 59.3913C24.6906 58.9957 24.6929 58.6002 24.6965 58.2047C24.7019 57.5783 24.7025 56.9519 24.7023 56.3254C24.7025 54.5442 24.709 52.7629 24.7203 50.9817C24.7266 49.9977 24.7288 49.0139 24.7269 48.0299C24.7259 47.4082 24.7298 46.7868 24.7374 46.1651C24.741 45.7766 24.74 45.3883 24.7377 44.9998C24.7375 44.7362 24.7427 44.4726 24.7481 44.209C24.7337 42.9731 24.3708 42.354 23.5157 41.4805C23.4043 41.3437 23.2929 41.2069 23.1782 41.066C23.0865 40.9546 22.9949 40.8433 22.9005 40.7285C22.7984 40.6034 22.6964 40.4782 22.5913 40.3493C22.3906 40.1049 22.1881 39.862 21.9835 39.6209C20.5787 37.9372 20.4888 36.5339 20.5079 34.3711C19.4251 34.3711 18.3423 34.3711 17.2267 34.3711C17.2288 34.7201 17.2309 35.0691 17.2332 35.4287C17.24 36.5856 17.2445 37.7424 17.2479 38.8993C17.25 39.6003 17.2529 40.3013 17.2576 41.0023C17.2621 41.6795 17.2645 42.3568 17.2656 43.0341C17.2663 43.2917 17.2678 43.5493 17.27 43.8068C17.2977 47.1455 17.2977 47.1455 16.1675 48.4257C15.068 49.4995 13.8043 49.6575 12.3432 49.6457C12.2329 49.6434 12.1226 49.6411 12.0089 49.6388C11.6719 49.6323 11.3355 49.6332 10.9985 49.635C9.66622 49.6303 8.56071 49.5415 7.43951 48.7506C6.13981 47.397 5.98909 46.0251 6.00717 44.2148C6.00778 44.0959 6.0084 43.9769 6.00904 43.8543C6.01063 43.5643 6.01308 43.2744 6.01571 42.9844C5.91376 42.9865 5.8118 42.9887 5.70676 42.9909C5.24009 42.9995 4.77344 43.0047 4.30673 43.01C4.14635 43.0134 3.98597 43.0169 3.82074 43.0204C2.69643 43.0299 1.7282 42.9688 0.846034 42.1897C0.771837 42.1268 0.697641 42.0639 0.621196 41.999C0.0831949 41.3739 -0.051353 40.7851 -0.0538363 39.9755C-0.0546691 39.8823 -0.0555015 39.7892 -0.0563595 39.6932C-0.0586256 39.3827 -0.0579816 39.0724 -0.0573243 38.7619C-0.0583284 38.5386 -0.0595024 38.3153 -0.0608333 38.092C-0.0638678 37.4867 -0.0642717 36.8813 -0.0640126 36.276C-0.0639962 35.7701 -0.0651676 35.2642 -0.0663063 34.7583C-0.068935 33.5645 -0.0693304 32.3707 -0.068406 31.1769C-0.0674983 29.9466 -0.0706241 28.7163 -0.0756951 27.486C-0.0798949 26.4285 -0.0814446 25.3711 -0.0809126 24.3137C-0.0806302 23.6826 -0.0813745 23.0516 -0.0847261 22.4205C-0.087775 21.8269 -0.0875105 21.2333 -0.0847365 20.6396C-0.0842711 20.4223 -0.0849616 20.2049 -0.0869207 19.9875C-0.104841 17.8512 -0.104842 17.8512 0.683681 17.0078C1.54947 16.2054 2.36749 16.0312 3.53234 16.0374C3.67774 16.0379 3.82314 16.0383 3.97294 16.0388C4.19738 16.0405 4.19738 16.0405 4.42636 16.0422C4.57916 16.0428 4.73195 16.0435 4.88938 16.0441C5.26483 16.0457 5.64027 16.0479 6.01571 16.0508C6.01254 15.8807 6.00937 15.7106 6.0061 15.5354C5.95796 11.9354 5.95796 11.9354 7.22215 10.59C8.13288 9.73297 9.06608 9.42394 10.2956 9.42899ZM55.337 12.4277C55.0253 12.8729 54.944 13.2069 54.9427 13.7374C54.9421 13.8514 54.9415 13.9653 54.9408 14.0827C54.9408 14.2079 54.9409 14.3331 54.9409 14.4621C54.9404 14.5951 54.9399 14.7282 54.9394 14.8652C54.9379 15.3129 54.9373 15.7607 54.9368 16.2084C54.936 16.5286 54.9351 16.8488 54.9341 17.169C54.9317 18.0405 54.9303 18.912 54.9291 19.7834C54.9284 20.3277 54.9276 20.872 54.9268 21.4162C54.9244 22.9235 54.9225 24.4307 54.9215 25.9379C54.9212 26.329 54.9209 26.72 54.9207 27.1111C54.9206 27.2083 54.9205 27.3055 54.9205 27.4057C54.9193 28.9799 54.9159 30.5542 54.9114 32.1284C54.9069 33.7451 54.9044 35.3617 54.904 36.9784C54.9037 37.8859 54.9025 38.7934 54.899 39.7009C54.8958 40.5548 54.8953 41.4086 54.8967 42.2625C54.8967 42.5758 54.8959 42.889 54.894 43.2023C54.8916 43.6303 54.8925 44.0582 54.8943 44.4862C54.8928 44.6099 54.8913 44.7335 54.8898 44.861C54.8979 45.6646 55.0512 46.2785 55.5079 46.9492C56.0327 47.3986 56.484 47.412 57.1613 47.4138C57.2528 47.4142 57.3443 47.4146 57.4386 47.415C57.6311 47.4153 57.8237 47.4146 58.0163 47.4128C58.3098 47.4106 58.603 47.4128 58.8965 47.4154C59.0843 47.4152 59.2721 47.4146 59.4599 47.4138C59.6296 47.4134 59.7992 47.4129 59.974 47.4124C60.6296 47.3361 60.9736 47.0967 61.421 46.6245C61.8175 46.0297 61.8144 45.4443 61.8207 44.7432C61.8225 44.5771 61.8244 44.4111 61.8263 44.24C61.8277 44.062 61.8291 43.884 61.8306 43.7005C61.8327 43.5152 61.8349 43.3298 61.8372 43.1445C61.8469 42.3591 61.8552 41.5738 61.8621 40.7884C61.8665 40.3071 61.8721 39.8259 61.8786 39.3447C61.8818 39.0722 61.8836 38.7997 61.8854 38.5272C61.8876 38.3624 61.8899 38.1977 61.8923 38.0279C61.8937 37.8825 61.8951 37.737 61.8965 37.5871C61.9337 37.2422 61.9337 37.2422 62.2071 36.9687C62.4934 36.9324 62.4934 36.9324 62.8224 36.9346C62.9309 36.9339 63.0395 36.9331 63.1513 36.9324C63.4376 36.9687 63.4376 36.9687 63.711 37.2422C63.8511 37.6587 63.8732 38.0633 63.891 38.5004C63.8967 38.6344 63.9025 38.7683 63.9084 38.9063C63.9137 39.0452 63.9191 39.1841 63.9246 39.3271C63.9305 39.4681 63.9365 39.6091 63.9425 39.7544C63.957 40.1019 63.971 40.4493 63.9845 40.7969C64.5199 40.8088 65.0554 40.8161 65.5909 40.8225C65.7428 40.8259 65.8947 40.8294 66.0513 40.8329C66.1975 40.8342 66.3438 40.8356 66.4945 40.8369C66.6964 40.8401 66.6964 40.8401 66.9024 40.8434C67.3272 40.789 67.5082 40.6839 67.8126 40.3867C67.9619 39.9387 67.9673 39.6094 67.9685 39.1377C67.9693 38.9621 67.9701 38.7865 67.9709 38.6056C67.971 38.4106 67.9712 38.2156 67.9713 38.0206C67.972 37.8156 67.9727 37.6106 67.9734 37.4055C67.9752 36.8482 67.9761 36.2909 67.9767 35.7335C67.9771 35.3854 67.9776 35.0373 67.9782 34.6891C67.9801 33.6 67.9814 32.511 67.982 31.4219C67.9826 30.1644 67.985 28.9069 67.9889 27.6494C67.9919 26.6775 67.9933 25.7057 67.9935 24.7338C67.9936 24.1533 67.9944 23.5728 67.9968 22.9922C67.9991 22.4462 67.9994 21.9002 67.9982 21.3541C67.9981 21.1538 67.9987 20.9534 68 20.7531C68.0018 20.4794 68.0007 20.2058 67.9995 19.9322C67.9997 19.7791 68 19.626 68.0002 19.4682C67.9423 19.0024 67.8243 18.7456 67.5391 18.375C67.1209 18.2356 66.8386 18.2225 66.4011 18.2249C66.2605 18.2254 66.12 18.2258 65.9752 18.2263C65.7553 18.228 65.7553 18.228 65.5311 18.2297C65.383 18.2303 65.2348 18.231 65.0822 18.2316C64.7163 18.2332 64.3504 18.2355 63.9845 18.2383C63.984 18.3166 63.9836 18.3948 63.9831 18.4755C63.972 20.3811 63.9594 22.2867 63.9452 24.1924C63.9383 25.1139 63.932 26.0354 63.9268 26.957C63.9218 27.8461 63.9154 28.7353 63.9082 29.6244C63.9056 29.9638 63.9036 30.3032 63.902 30.6427C63.8997 31.1176 63.8957 31.5926 63.8913 32.0675C63.891 32.2083 63.8907 32.349 63.8904 32.494C63.8889 32.6237 63.8874 32.7535 63.8858 32.8872C63.8847 33.0557 63.8847 33.0557 63.8835 33.2275C63.8415 33.6074 63.7469 33.8936 63.5743 34.2344C63.1094 34.472 62.875 34.5427 62.3695 34.3967C62.0704 34.2344 62.0704 34.2344 61.9337 34.0976C61.9194 33.8334 61.9148 33.5686 61.9139 33.3039C61.9129 33.1314 61.912 32.9589 61.911 32.7811C61.9107 32.5882 61.9103 32.3952 61.9099 32.2022C61.9091 32.0003 61.9082 31.7985 61.9072 31.5966C61.9052 31.1608 61.9036 30.725 61.9023 30.2892C61.9002 29.5997 61.8969 28.9103 61.8934 28.2208C61.8836 26.2599 61.8755 24.299 61.8685 22.3381C61.8646 21.2559 61.8598 20.1738 61.8539 19.0917C61.8503 18.4067 61.8478 17.7218 61.8462 17.0368C61.845 16.6097 61.8426 16.1826 61.8399 15.7555C61.8389 15.5579 61.8384 15.3603 61.8383 15.1627C61.8381 14.8922 61.8362 14.6216 61.8341 14.351C61.8335 14.1998 61.833 14.0487 61.8324 13.8929C61.7855 13.3108 61.7067 12.7181 61.327 12.2579C60.4364 11.6122 59.7623 11.6459 58.6943 11.6429C58.4071 11.6416 58.1201 11.6374 57.8329 11.633C57.6495 11.6322 57.466 11.6314 57.2826 11.6309C57.1161 11.6296 56.9495 11.6284 56.778 11.627C56.1161 11.6987 55.776 11.94 55.337 12.4277ZM2.18759 18.6484C2.03825 19.0964 2.03292 19.4257 2.03167 19.8974C2.03089 20.073 2.03011 20.2486 2.0293 20.4295C2.02913 20.6245 2.02898 20.8195 2.02884 21.0145C2.02821 21.2195 2.02752 21.4246 2.02678 21.6296C2.02499 22.1869 2.02411 22.7443 2.0235 23.3016C2.0231 23.6497 2.02254 23.9979 2.02193 24.346C2.02006 25.4351 2.01873 26.5242 2.01821 27.6132C2.01759 28.8707 2.01519 30.1282 2.01123 31.3858C2.00828 32.3576 2.0069 33.3294 2.00672 34.3013C2.00657 34.8818 2.00576 35.4624 2.00332 36.0429C2.00107 36.5889 2.00077 37.135 2.00198 37.681C2.00208 37.8814 2.00149 38.0817 2.00014 38.282C1.9984 38.5557 1.99944 38.8293 2.00062 39.103C2.00042 39.2561 2.00022 39.4092 2.00002 39.5669C2.05748 40.0298 2.18497 40.2874 2.46102 40.6601C3.52161 41.1904 4.82994 40.7969 6.01571 40.7969C6.01571 33.3525 6.01571 25.9082 6.01571 18.2383C3.18772 17.9686 3.18772 17.9686 2.18759 18.6484ZM36.7774 18.5117C36.3755 18.8817 35.9787 19.3151 35.937 19.8768C35.9357 19.9878 35.9343 20.0989 35.9329 20.2133C35.9312 20.3393 35.9294 20.4653 35.9276 20.5951C35.9266 20.7317 35.9256 20.8682 35.9245 21.009C35.9234 21.1493 35.9223 21.2895 35.9212 21.4341C35.9193 21.7315 35.9178 22.029 35.9168 22.3264C35.9144 22.7804 35.9084 23.2343 35.9024 23.6883C35.901 23.9773 35.8998 24.2662 35.8989 24.5551C35.8965 24.6906 35.8941 24.826 35.8917 24.9656C35.8942 25.7636 35.9406 26.2621 36.504 26.8516C36.8033 26.9627 36.8033 26.9627 37.1256 26.9317C37.2411 26.929 37.3565 26.9264 37.4754 26.9236C37.5948 26.9168 37.7141 26.9099 37.837 26.9028C38.0191 26.8973 38.0191 26.8973 38.205 26.8916C38.5042 26.882 38.8027 26.8678 39.1017 26.8516C39.6532 26.0502 39.7296 25.4497 39.7212 24.4889C39.7219 24.2895 39.7219 24.2895 39.7227 24.0861C39.7231 23.8061 39.7221 23.5262 39.7198 23.2463C39.7169 22.8196 39.7198 22.3932 39.7233 21.9665C39.7229 21.6936 39.7222 21.4207 39.7212 21.1478C39.7223 21.0212 39.7234 20.8945 39.7245 20.7641C39.7127 19.9438 39.5803 19.457 39.1017 18.7851C38.3291 18.1909 37.6755 18.1429 36.7774 18.5117ZM30.7618 19.8789C30.1171 20.5745 30.0541 21.0485 30.0456 21.9703C30.0445 22.0832 30.0434 22.1962 30.0423 22.3126C30.0404 22.5521 30.0389 22.7917 30.0379 23.0312C30.0355 23.3961 30.0295 23.7608 30.0235 24.1257C30.0221 24.3586 30.0209 24.5914 30.02 24.8243C30.0176 24.9328 30.0152 25.0414 30.0127 25.1532C30.0155 25.8756 30.1539 26.2742 30.6251 26.8516C31.0463 27.2587 31.4072 27.3755 31.9923 27.3984C32.6234 27.1917 33.0807 26.9646 33.4962 26.4414C33.7833 25.8708 33.8135 25.3398 33.8155 24.7126C33.8165 24.613 33.8174 24.5134 33.8183 24.4108C33.8197 24.2006 33.8203 23.9905 33.8203 23.7803C33.8209 23.4616 33.8258 23.1431 33.831 22.8245C33.839 21.7762 33.8435 20.9057 33.2227 20.0156C32.406 19.3493 31.6612 19.3792 30.7618 19.8789ZM42.0224 20.7177C41.7824 21.2222 41.7746 21.6765 41.7767 22.2239C41.776 22.3303 41.7753 22.4366 41.7746 22.5462C41.7737 22.7703 41.7739 22.9945 41.775 23.2187C41.7762 23.5602 41.7723 23.9015 41.7679 24.2429C41.7677 24.4615 41.7678 24.68 41.7682 24.8985C41.7667 24.9998 41.7651 25.1011 41.7635 25.2054C41.7729 25.9053 41.915 26.3285 42.3829 26.8516C42.6822 26.9627 42.6822 26.9627 43.0045 26.9317C43.12 26.929 43.2354 26.9264 43.3544 26.9236C43.4737 26.9168 43.593 26.9099 43.7159 26.9028C43.898 26.8973 43.898 26.8973 44.0839 26.8916C44.3831 26.882 44.6816 26.8678 44.9806 26.8516C45.4321 26.1609 45.6099 25.6513 45.6001 24.8179C45.6008 24.6685 45.6008 24.6685 45.6016 24.5162C45.602 24.3071 45.601 24.098 45.5987 23.8889C45.5958 23.571 45.5987 23.2536 45.6022 22.9358C45.6018 22.7315 45.6011 22.5271 45.6001 22.3227C45.6012 22.229 45.6023 22.1353 45.6034 22.0387C45.5893 21.3002 45.3825 20.8869 44.9806 20.2891C44.4845 19.8497 44.0101 19.8074 43.3693 19.8308C42.7631 19.9271 42.3871 20.2419 42.0224 20.7177ZM24.8829 20.6992C24.4192 21.1591 24.2252 21.3667 24.1152 22.016C24.1162 22.1963 24.1171 22.3767 24.1181 22.5625C24.1181 22.6599 24.1181 22.7573 24.1181 22.8576C24.1188 23.0622 24.1212 23.2669 24.1252 23.4715C24.1309 23.7836 24.1308 24.0953 24.1299 24.4074C24.1377 25.491 24.1457 26.1949 24.8914 27.031C25.4775 27.3676 25.9996 27.351 26.6602 27.2617C27.2413 27.0268 27.4817 26.7262 27.754 26.168C27.9871 25.4276 27.9215 24.6373 27.9249 23.8694C27.9277 23.7103 27.9305 23.5513 27.9334 23.3874C27.9382 22.3506 27.8717 21.6453 27.2498 20.7932C26.4473 20.2076 25.7422 20.1804 24.8829 20.6992ZM17.2267 26.8516C17.2267 28.6562 17.2267 30.4609 17.2267 32.3203C22.7309 32.3203 28.2352 32.3203 33.9063 32.3203C33.771 31.7112 33.771 31.7112 33.6329 31.0898C33.6313 30.6599 33.6313 30.6599 33.6756 30.2952C33.6892 30.173 33.7028 30.0509 33.7167 29.9251C33.7638 29.6229 33.8259 29.3338 33.9063 29.0391C33.7872 29.0718 33.6681 29.1046 33.5453 29.1384C32.4227 29.4178 31.4633 29.5616 30.3516 29.1758C30.0103 28.9698 29.7046 28.7549 29.3994 28.4986C29.12 28.3153 29.12 28.3153 28.7858 28.4468C28.4495 28.6227 28.1134 28.7986 27.7796 28.9792C26.649 29.5429 25.686 29.5318 24.4727 29.1758C23.5805 28.7811 22.7905 28.094 22.4121 27.1818C22.1657 26.7967 22.1657 26.7967 21.6501 26.7739C21.444 26.7741 21.2378 26.7779 21.0318 26.7848C20.8873 26.7858 20.8873 26.7858 20.7399 26.7869C20.3805 26.7905 20.0212 26.8 19.662 26.8088C18.4565 26.83 18.4565 26.83 17.2267 26.8516ZM47.4415 26.8516C47.4415 26.9418 47.4415 27.032 47.4415 27.125C47.6653 27.2671 47.6653 27.2671 47.9456 27.407C48.6134 27.8072 48.9432 28.3186 49.2188 29.0391C49.3715 29.733 49.398 30.4336 49.4325 31.1411C49.4522 31.5302 49.4719 31.9194 49.4923 32.3203C50.5751 32.3203 51.6579 32.3203 52.7735 32.3203C52.7735 30.5156 52.7735 28.7109 52.7735 26.8516C51.014 26.8516 49.2544 26.8516 47.4415 26.8516Z" fill="#797979"/>
<path d="M44.844 48.4531C45.1176 48.6937 45.2376 48.8891 45.2916 49.2516C45.3087 49.5753 45.3111 49.8964 45.3094 50.2206C45.3103 50.3438 45.3112 50.467 45.3122 50.594C45.3147 51.0012 45.3142 51.4083 45.3134 51.8156C45.314 52.0985 45.3148 52.3815 45.3156 52.6645C45.3168 53.2575 45.3165 53.8505 45.3151 54.4436C45.3135 55.204 45.3163 55.9644 45.3203 56.7248C45.3228 57.3092 45.3228 57.8935 45.322 58.4778C45.322 58.7582 45.3228 59.0386 45.3245 59.319C45.3265 59.7108 45.3251 60.1025 45.3227 60.4943C45.324 60.6103 45.3254 60.7264 45.3267 60.846C45.3202 61.3645 45.3145 61.6305 45.0063 62.0608C44.57 62.3539 44.2638 62.3259 43.7502 62.2617C43.3148 62.0211 43.2262 61.9201 43.0666 61.4414C43.0513 61.0519 43.0437 60.6657 43.0424 60.2762C43.0415 60.1572 43.0406 60.0382 43.0397 59.9156C43.037 59.5217 43.0354 59.1277 43.0341 58.7337C43.0335 58.5992 43.0329 58.4647 43.0324 58.3261C43.0295 57.6144 43.0276 56.9026 43.0263 56.1909C43.0248 55.4554 43.0201 54.72 43.0146 53.9846C43.0111 53.4193 43.0099 52.854 43.0094 52.2886C43.0088 52.0175 43.0072 51.7464 43.0046 51.4752C43.0013 51.0959 43.0014 50.7167 43.0024 50.3373C43.0006 50.2254 42.9989 50.1134 42.9971 49.9981C43.002 49.4557 43.0278 49.1976 43.327 48.7284C43.8434 48.2323 44.1558 48.2962 44.844 48.4531Z" fill="#797979"/>
</g>
<defs>
<clipPath id="clip0_811_127">
<rect width="70" height="70" fill="white" transform="translate(0 0.875)"/>
</clipPath>
</defs>
</svg>
