<svg width="23" height="19" viewBox="0 0 23 19" fill="none" xmlns="http://www.w3.org/2000/svg">
<path d="M7.76476 3.7041C7.76476 3.15182 7.31704 2.7041 6.76476 2.7041C6.21247 2.7041 5.76476 3.15182 5.76476 3.7041V5.7041C5.76476 6.25639 6.21247 6.7041 6.76476 6.7041C7.31704 6.7041 7.76476 6.25639 7.76476 5.7041V3.7041Z" fill="#474747"/>
<path d="M6.76476 7.2041C7.31704 7.2041 7.76476 7.65182 7.76476 8.2041V10.2041C7.76476 10.7564 7.31704 11.2041 6.76476 11.2041C6.21247 11.2041 5.76476 10.7564 5.76476 10.2041V8.2041C5.76476 7.65182 6.21247 7.2041 6.76476 7.2041Z" fill="#474747"/>
<path d="M7.76476 12.7041C7.76476 12.1518 7.31704 11.7041 6.76476 11.7041C6.21247 11.7041 5.76476 12.1518 5.76476 12.7041V14.7041C5.76476 15.2564 6.21247 15.7041 6.76476 15.7041C7.31704 15.7041 7.76476 15.2564 7.76476 14.7041V12.7041Z" fill="#474747"/>
<path fill-rule="evenodd" clip-rule="evenodd" d="M22.2647 14.2041L22.2647 13.9123C22.2647 13.2913 22.1202 12.6789 21.8425 12.1235L20.9378 10.3141C20.6168 9.67211 20.6644 8.9074 21.0625 8.31023L21.593 7.51457C22.031 6.8575 22.2647 6.08548 22.2647 5.29578V4.2041C22.2647 1.99496 20.4739 0.204102 18.2647 0.204102H4.63881C2.24572 0.204102 0.394151 2.30153 0.690977 4.67614C0.762689 5.24984 0.958576 5.80101 1.265 6.29129L2.42301 8.1441C2.82835 8.79264 2.82835 9.61556 2.42301 10.2641L1.37276 11.9445C0.975433 12.5802 0.764755 13.3148 0.764755 14.0645L0.764754 14.2041C0.764754 16.4132 2.55562 18.2041 4.76475 18.2041H18.2647C20.4739 18.2041 22.2648 16.4132 22.2647 14.2041ZM20.2647 13.9123L20.2647 14.2041C20.2647 15.3087 19.3693 16.2041 18.2647 16.2041L4.76475 16.2041C3.66018 16.2041 2.76475 15.3087 2.76475 14.2041V14.0645C2.76475 13.6896 2.87009 13.3224 3.06876 13.0045L4.119 11.3241C4.92968 10.027 4.92968 8.38119 4.119 7.0841L2.961 5.2313C2.80861 4.98748 2.7112 4.71338 2.67553 4.42807C2.52792 3.24716 3.44871 2.2041 4.63881 2.2041L18.2647 2.2041C19.3693 2.2041 20.2647 3.09953 20.2647 4.2041V5.29578C20.2647 5.69063 20.1479 6.07664 19.9288 6.40518L19.3984 7.20084C18.6022 8.39518 18.507 9.92459 19.1489 11.2085L20.0536 13.0179C20.1925 13.2956 20.2647 13.6018 20.2647 13.9123Z" fill="#474747"/>
</svg>
